<svg width="40" height="40" viewBox="0 0 40 40" fill="none" xmlns="http://www.w3.org/2000/svg">
<g clip-path="url(#clip0_7065_1200)">
<path d="M36.5295 16.6186L34.2474 3.27613C34.0277 1.96922 32.8952 1.01288 31.57 1.01514H8.43511C7.10992 1.01288 5.9774 1.96922 5.75771 3.27613L3.47563 16.6186C3.38109 17.1716 3.75274 17.6964 4.30572 17.7909C4.8587 17.8854 5.38348 17.5138 5.47801 16.9608L7.76009 3.61832C7.81478 3.28816 8.10049 3.04612 8.43511 3.04643H31.57C31.9047 3.04612 32.1903 3.28816 32.245 3.61832L34.5271 16.9608C34.6215 17.5138 35.1464 17.8854 35.6994 17.7909C36.2523 17.6964 36.624 17.1715 36.5295 16.6186Z" fill="#4E7524"/>
<path d="M27.3711 27.0413C26.8171 26.9534 26.2968 27.3312 26.2088 27.8852C26.2074 27.8944 26.206 27.9036 26.2049 27.9128L25.8564 30.3285C25.8236 30.552 25.6323 30.7181 25.4064 30.7192H14.5882C14.3623 30.7181 14.171 30.552 14.1382 30.3285L13.789 27.9136C13.7186 27.3571 13.2103 26.9631 12.6539 27.0335C12.0974 27.1039 11.7034 27.6121 11.7738 28.1686C11.7752 28.1803 11.7769 28.1918 11.7788 28.2034L12.128 30.6191C12.3107 31.8386 13.3551 32.7428 14.5882 32.7488H25.4056C26.6387 32.7428 27.6832 31.8386 27.8658 30.6191L28.2151 28.2034C28.303 27.6496 27.9251 27.1292 27.3711 27.0413Z" fill="#4E7524"/>
<path d="M36.0355 19.5619C35.8865 19.5466 35.7367 19.539 35.5869 19.5391H4.41439C1.97731 19.538 0.000938112 21.5129 5.91889e-07 23.9499C-7.75348e-05 24.1002 0.00757888 24.2505 0.0228136 24.4L1.14159 35.3417C1.34714 37.413 3.09218 38.9896 5.17371 38.9847H34.8259C36.9067 38.9898 38.6513 37.4144 38.858 35.344L39.9768 24.4C40.2245 21.9757 38.4599 19.8095 36.0355 19.5619ZM37.9533 24.1931L36.8377 35.1347C36.7358 36.1687 35.8649 36.9561 34.8259 36.9535H5.17371C4.13548 36.9562 3.26491 36.1701 3.16194 35.1371L2.04317 24.1931C1.97098 23.5224 2.19005 22.853 2.64474 22.3547C3.09413 21.852 3.73766 21.5661 4.41197 21.5696H35.5845C36.8997 21.5697 37.9657 22.6358 37.9657 23.951C37.9657 24.0318 37.9616 24.1126 37.9533 24.1931Z" fill="#4E7524"/>
<path d="M28.3957 5.46826H11.6094C11.0484 5.46826 10.5938 5.92296 10.5938 6.48391C10.5938 7.04486 11.0484 7.49956 11.6094 7.49956H28.3957C28.9566 7.49956 29.4113 7.04486 29.4113 6.48391C29.4113 5.92296 28.9566 5.46826 28.3957 5.46826Z" fill="#4E7524"/>
<path d="M29.0645 9.83398H10.9297C10.3688 9.83398 9.91406 10.2887 9.91406 10.8496C9.91406 11.4106 10.3688 11.8653 10.9297 11.8653H29.0645C29.6254 11.8653 30.0801 11.4106 30.0801 10.8496C30.0801 10.2887 29.6254 9.83398 29.0645 9.83398Z" fill="#4E7524"/>
<path d="M29.9614 14.2021H10.0391C9.47814 14.2021 9.02344 14.6568 9.02344 15.2178C9.02344 15.7787 9.47814 16.2334 10.0391 16.2334H29.9614C30.5223 16.2334 30.977 15.7787 30.977 15.2178C30.977 14.6568 30.5223 14.2021 29.9614 14.2021Z" fill="#4E7524"/>
</g>
<defs>
<clipPath id="clip0_7065_1200">
<rect width="40" height="40" fill="white"/>
</clipPath>
</defs>
</svg>
