<svg width="40" height="40" viewBox="0 0 40 40" fill="none" xmlns="http://www.w3.org/2000/svg">
<g clip-path="url(#clip0_7065_1274)">
<path d="M11.8804 0C9.17636 0 6.98438 2.19199 6.98438 4.896C6.98742 7.59876 9.17761 9.78895 11.8804 9.792C14.5844 9.792 16.7764 7.60001 16.7764 4.896C16.7764 2.19199 14.5844 0 11.8804 0ZM11.8819 7.76157C10.2998 7.76204 9.01684 6.47972 9.01637 4.89756C9.01637 4.89701 9.01637 4.89654 9.01637 4.896C9.01855 3.31517 10.2995 2.03418 11.8804 2.03199C13.4625 2.0316 14.7455 3.31384 14.7459 4.896C14.7463 6.47815 13.4641 7.7611 11.8819 7.76157Z" fill="#4E7524"/>
<path d="M16.2773 10.4887C16.1103 10.4697 15.9425 10.4601 15.7744 10.4601H14.4987C14.1387 10.4584 13.7979 10.6223 13.5745 10.9046L11.8816 13.0178L10.1933 10.9085C9.96941 10.6235 9.62683 10.4576 9.26442 10.4585H7.98944C5.51285 10.46 3.50633 12.4689 3.50781 14.9454C3.50789 15.1134 3.51742 15.2813 3.53641 15.4482V15.4678L4.54342 23.0458C4.68568 24.307 5.42738 25.4222 6.53557 26.041L8.15819 37.9189C8.30014 39.1058 9.30653 39.9995 10.5019 40.0001H13.2597C14.4556 40.0003 15.4629 39.1064 15.6049 37.9189L17.2268 26.0394C18.3347 25.4216 19.0769 24.3077 19.2205 23.0473L20.2275 15.4693V15.4498C20.5066 12.989 18.7381 10.7678 16.2773 10.4887ZM18.2135 15.2084L17.2065 22.7864V22.8059C17.1253 23.5334 16.6379 24.1517 15.9494 24.4004C15.5966 24.5299 15.3442 24.8437 15.2932 25.216L13.5909 37.6564L13.5886 37.6752C13.5695 37.8424 13.428 37.9688 13.2597 37.9689H10.5035C10.3349 37.9687 10.1932 37.8419 10.1746 37.6744V37.6525L8.47381 25.2152C8.4228 24.8429 8.17038 24.5292 7.81757 24.3996C7.13063 24.1497 6.64494 23.5317 6.56447 22.8051V22.7856L5.54887 15.2076C5.40129 13.8609 6.37346 12.6496 7.72015 12.502C7.80882 12.4923 7.89788 12.4874 7.9871 12.4874H8.85427L10.7238 14.8209C10.9955 15.164 11.4095 15.3635 11.8472 15.3623H11.8792C12.3268 15.3738 12.7537 15.1744 13.0323 14.824L14.9073 12.4881H15.7752C17.13 12.4883 18.2282 13.5866 18.2281 14.9415C18.2281 15.0307 18.2232 15.1197 18.2135 15.2084Z" fill="#4E7524"/>
<path d="M21.5938 1.89453C21.0329 1.89445 20.5782 2.34913 20.5781 2.91006C20.5781 3.15466 20.6663 3.39099 20.8266 3.57575L20.8688 3.62418C22.2179 5.1754 23.3303 6.91764 24.1695 8.7944H22.1469C21.586 8.79479 21.1316 9.24986 21.1321 9.81078C21.1325 10.3711 21.5866 10.8252 22.1469 10.8256H24.9476C25.4665 12.4311 25.7753 14.097 25.8664 15.7818H23.0774C22.5164 15.7818 22.0618 16.2364 22.0618 16.7974C22.0618 17.3583 22.5164 17.813 23.0774 17.813H25.8664C25.7753 19.4978 25.4665 21.1636 24.9476 22.7691H22.1469C21.586 22.7691 21.1313 23.2238 21.1313 23.7847C21.1313 24.3457 21.586 24.8003 22.1469 24.8003H24.1695C23.3218 26.6957 22.1959 28.4539 20.829 30.0166C20.4601 30.4391 20.5035 31.0808 20.9261 31.4497C21.1111 31.6111 21.3483 31.7002 21.5938 31.7002C29.8116 31.6994 36.4966 25.0144 36.4966 16.7974C36.4966 8.57956 29.8116 1.89453 21.5938 1.89453ZM32.9951 10.8256C33.8037 12.3632 34.2902 14.0497 34.4248 15.7818H27.9007C27.8217 14.103 27.5459 12.4392 27.0789 10.8248L27.0796 10.8256H32.9951ZM23.8399 4.12105L23.8406 4.12183C26.9323 4.67307 29.7161 6.33476 31.6686 8.7944H26.3828C25.7234 7.1413 24.8698 5.57251 23.8399 4.12105ZM23.8399 29.4721L23.8391 29.4729C24.8692 28.0218 25.7231 26.4532 26.3828 24.8003H31.667C29.7146 27.2595 26.9311 28.9209 23.8399 29.4721ZM32.9936 22.7691H27.0789C27.546 21.1549 27.8222 19.4915 27.9015 17.813H34.4248C34.2897 19.5451 33.8027 21.2316 32.9936 22.7691Z" fill="#4E7524"/>
</g>
<defs>
<clipPath id="clip0_7065_1274">
<rect width="40" height="40" fill="white"/>
</clipPath>
</defs>
</svg>
