<svg width="40" height="40" viewBox="0 0 40 40" fill="none" xmlns="http://www.w3.org/2000/svg">
<g clip-path="url(#clip0_7065_1234)">
<path d="M24.7676 14.8581L21.6057 13.0335C22.0009 11.2281 20.8576 9.44434 19.0524 9.04918C18.8171 8.99771 18.5769 8.9717 18.336 8.97178L18.3353 8.97022C16.4863 8.9685 14.9861 10.4659 14.9844 12.3149C14.9827 14.1638 16.4801 15.664 18.329 15.6657C19.165 15.6665 19.9711 15.3545 20.5887 14.7909L23.7521 16.6171C24.2379 16.8975 24.859 16.7311 25.1394 16.2453C25.4198 15.7596 25.2533 15.1385 24.7676 14.8581ZM18.3353 13.6349C17.6079 13.6349 17.0183 13.0453 17.0183 12.318C17.0183 11.5906 17.6079 11.0011 18.3353 11.0011C19.0626 11.0011 19.6522 11.5907 19.6522 12.318C19.6513 13.0449 19.0622 13.634 18.3353 13.6349Z" fill="#4E7524"/>
<path d="M24.4959 1.65327C18.6075 -1.74839 11.0764 0.267454 7.67469 6.15588C5.47302 9.96699 5.47302 14.6634 7.67469 18.4745C7.95502 18.9602 8.57599 19.1267 9.06167 18.8464C9.06175 18.8464 9.06183 18.8463 9.06191 18.8463L11.1709 17.627C11.6566 17.3466 11.8231 16.7255 11.5427 16.2398C11.2622 15.754 10.6412 15.5876 10.1554 15.868L8.96661 16.5546C7.75436 13.8605 7.75436 10.7761 8.96661 8.08205L10.1547 8.76785C10.6404 9.04827 11.2615 8.88181 11.5419 8.39605C11.8223 7.91029 11.6558 7.28924 11.1701 7.00883L9.98125 6.32303C11.7083 3.92594 14.3794 2.38359 17.3188 2.08639V3.45877C17.3188 4.01959 17.7734 4.47419 18.3343 4.47419C18.8951 4.47419 19.3497 4.01959 19.3497 3.45877V2.08639C22.2891 2.38359 24.9603 3.92594 26.6873 6.32303L25.4984 7.00883C25.0127 7.28924 24.8462 7.91029 25.1266 8.39605C25.4071 8.88181 26.0281 9.04827 26.5139 8.76785L27.7027 8.08205C29.0619 11.101 28.8897 14.5889 27.2395 17.4591C26.9591 17.9448 27.1255 18.5659 27.6113 18.8463C28.0971 19.1267 28.7181 18.9603 28.9985 18.4745C32.4003 12.5861 30.3843 5.05501 24.4959 1.65327Z" fill="#4E7524"/>
<path d="M38.3248 18.7079C36.9819 17.365 34.8047 17.365 33.4618 18.7079L28.2284 23.9412C27.701 22.6544 26.4486 21.8137 25.058 21.8127H13.5954C11.2956 21.8066 9.08885 22.7206 7.46699 24.3513L7.37638 24.4419L7.16158 23.5772C7.0263 23.033 6.47555 22.7015 5.93136 22.8367L1.44867 23.9459C0.902608 24.0734 0.563302 24.6196 0.690932 25.1657C0.818485 25.7118 1.36462 26.0511 1.91076 25.9235C1.92006 25.9213 1.92928 25.919 1.93849 25.9166L5.43545 25.048L8.43484 37.1268L4.93789 37.9954C4.39183 38.123 4.05252 38.6691 4.18015 39.2152C4.3077 39.7613 4.85384 40.1006 5.39998 39.9731C5.40928 39.9709 5.4185 39.9686 5.42771 39.9662L9.9104 38.8531C10.4546 38.7178 10.7861 38.1671 10.6509 37.6229L10.4455 36.7942C10.4626 36.7785 10.4806 36.7637 10.497 36.7473L12.1373 35.107H23.7865C25.7092 35.1116 27.5538 34.3472 28.9097 32.984L38.325 23.571C39.6678 22.2281 39.6678 20.0508 38.3248 18.7079ZM36.8853 22.1338L27.4755 31.5483C26.499 32.5302 25.1703 33.0806 23.7856 33.0769H11.7185C11.4492 33.0769 11.191 33.184 11.0007 33.3745L9.8751 34.5L7.94814 26.7399L8.90264 25.7807C10.1445 24.5319 11.8343 23.8318 13.5954 23.8365H25.0619C25.8317 23.8365 26.4557 24.4606 26.4557 25.2304C26.4557 26.0002 25.8317 26.6243 25.0619 26.6243H17.8641C17.3033 26.6243 16.8487 27.0789 16.8487 27.6397C16.8487 28.2005 17.3033 28.6551 17.8641 28.6551H25.0619C26.0036 28.659 26.905 28.2731 27.552 27.5889L34.8943 20.1428C35.4441 19.5929 36.3355 19.5929 36.8853 20.1428C37.4351 20.6926 37.4351 21.5839 36.8853 22.1338Z" fill="#4E7524"/>
<path d="M6.34282 35.1264L6.23191 34.6788C6.08897 34.1365 5.53353 33.8127 4.99122 33.9557C4.45969 34.0957 4.13616 34.6333 4.26121 35.1685L4.37213 35.6161C4.48437 36.0685 4.89015 36.3864 5.3563 36.387C5.91713 36.3877 6.37227 35.9336 6.3729 35.3728C6.37297 35.2898 6.3629 35.207 6.34282 35.1264Z" fill="#4E7524"/>
</g>
<defs>
<clipPath id="clip0_7065_1234">
<rect width="40" height="40" fill="white"/>
</clipPath>
</defs>
</svg>
