<svg width="40" height="40" viewBox="0 0 40 40" fill="none" xmlns="http://www.w3.org/2000/svg">
<path d="M36.6944 10.1074C36.6733 9.00266 36.6538 7.95967 36.6538 6.94793C36.6538 6.38698 36.1991 5.93228 35.6382 5.93228C29.4115 5.93228 24.6669 4.13537 20.7066 0.287642C20.3124 -0.0958808 19.6844 -0.0958808 19.2902 0.287642C15.33 4.14084 10.5861 5.93228 4.35943 5.93228C3.79849 5.93228 3.34379 6.38698 3.34379 6.94793C3.34379 7.95967 3.32426 9.00266 3.30316 10.1074C3.20316 15.3356 3.08988 21.2623 5.08523 26.6702C7.42434 33.0117 12.1947 37.354 19.6652 39.9439C19.8808 40.0187 20.1153 40.0187 20.3308 39.9439C27.8029 37.354 32.5725 33.0117 34.9124 26.6702C36.9077 21.2615 36.7944 15.3348 36.6944 10.1074ZM19.9988 37.9087C4.90866 32.5008 5.14383 20.1122 5.33445 10.1464C5.34852 9.38938 5.36258 8.66202 5.37039 7.94873C11.3135 7.7706 16.0058 5.99557 19.9988 2.40565C23.9911 5.99244 28.6841 7.7706 34.628 7.94873C34.6358 8.66124 34.6491 9.38938 34.6639 10.1464C34.8538 20.1115 35.0889 32.5008 19.9988 37.9087Z" fill="#4E7524"/>
<path d="M27.0419 15.9066L25.8325 14.7003C25.0479 13.9162 23.7891 13.8765 22.9566 14.6097L18.5972 18.459L16.9472 17.1684C16.1107 16.5157 14.919 16.5891 14.169 17.3395L12.9643 18.5442C12.1895 19.3243 12.1439 20.5688 12.8596 21.4036L17.0901 26.2943C17.4875 26.7514 18.0619 27.0159 18.6675 27.0209H18.6792C19.272 27.0224 19.8378 26.7739 20.2378 26.3365L27.1083 18.8067C27.8662 17.9781 27.837 16.6996 27.0419 15.9066ZM25.6036 17.4371L25.6044 17.4348L18.7339 24.9646C18.7088 24.9931 18.6653 24.9958 18.6369 24.9707C18.6347 24.9688 18.6327 24.9668 18.6308 24.9646L14.3994 20.0731C14.378 20.0451 14.38 20.0058 14.4041 19.9801L15.6104 18.7731C15.6231 18.7605 15.6403 18.7535 15.6581 18.7535C15.6733 18.7534 15.6881 18.7583 15.7003 18.7676L18.0151 20.5786C18.4008 20.8802 18.9468 20.8638 19.3136 20.5395L24.3004 16.1332C24.327 16.109 24.3676 16.109 24.3942 16.1332L25.602 17.3441C25.6273 17.3697 25.628 17.4107 25.6036 17.4371Z" fill="#4E7524"/>
</svg>
