<svg width="40" height="40" viewBox="0 0 40 40" fill="none" xmlns="http://www.w3.org/2000/svg">
<g clip-path="url(#clip0_7065_1251)">
<path d="M39.8844 25.6256L38.0952 19.9946L39.8813 14.3747C40.296 13.0696 39.5744 11.6754 38.2694 11.2603L34.9879 10.2173L32.994 3.9457C32.5775 2.64192 31.1846 1.92101 29.8797 2.33385L20.0312 5.4677L10.1211 2.31432C8.81572 1.89968 7.42147 2.62161 7.00675 3.92695L4.99955 10.2415L1.7321 11.2799C0.428328 11.6963 -0.292589 13.0892 0.120256 14.3942L1.90009 19.9946L0.117131 25.606C-0.29759 26.9111 0.423953 28.3053 1.72898 28.7203L5.00424 29.761L7.01065 36.0733C7.42522 37.3782 8.81908 38.1 10.124 37.6854C10.1243 37.6854 10.1247 37.6852 10.125 37.6851L20.0313 34.5364L29.8758 37.6617C31.1806 38.0768 32.5747 37.3556 32.9898 36.0508C32.9899 36.0505 32.9901 36.0501 32.9902 36.0498L34.9825 29.7806L38.271 28.7352C39.5742 28.3208 40.296 26.9296 39.8844 25.6256ZM37.6537 13.1972C37.8898 13.2723 38.0202 13.5245 37.9452 13.7605L37.0295 16.6405L35.7411 12.587L37.6537 13.1972ZM8.94284 4.54184C9.01792 4.30581 9.27013 4.17533 9.50616 4.25041L16.6778 6.5295L7.37084 9.48755L8.94284 4.54184ZM2.34309 26.7842C2.10706 26.7092 1.97658 26.457 2.05166 26.2209L2.96814 23.348L4.25262 27.3898L2.34309 26.7842ZM31.0555 35.4388C30.9802 35.6746 30.7283 35.8049 30.4922 35.7303L23.3823 33.4715L32.6104 30.5385L31.0555 35.4388ZM37.9194 26.5827C37.8648 26.6885 37.7704 26.768 37.6569 26.8038L9.50929 35.7498C9.27326 35.8249 9.02105 35.6944 8.94596 35.4584L2.05557 13.7793C1.98095 13.5433 2.11128 13.2914 2.347 13.216L30.4953 4.26995C30.7314 4.19486 30.9836 4.32534 31.0587 4.56138L37.9491 26.2405C37.9852 26.3539 37.9745 26.4771 37.9194 26.5827Z" fill="#4E7524"/>
<path d="M28.8048 12.798L27.7234 9.38209C27.5541 8.8476 26.9838 8.5514 26.4491 8.72032L23.0324 9.80088C22.4975 9.97003 22.2011 10.5407 22.3703 11.0756C22.5394 11.6105 23.1101 11.9069 23.645 11.7377L24.724 11.3963L21.1885 18.207L16.4905 17.2304C16.0665 17.1423 15.6333 17.3327 15.4115 17.7046L10.365 26.1725C10.0681 26.6485 10.2133 27.2749 10.6892 27.5718C11.1651 27.8687 11.7916 27.7236 12.0885 27.2477C12.0961 27.2355 12.1033 27.2233 12.1104 27.2109L16.7865 19.3665L21.5299 20.3525C21.9755 20.4449 22.4282 20.2298 22.6378 19.8259L26.5279 12.3323L26.8686 13.4113C27.0498 13.9422 27.627 14.2258 28.1579 14.0446C28.6724 13.869 28.9574 13.3196 28.8048 12.798Z" fill="#4E7524"/>
<path d="M30.734 24.8317C30.7311 24.8222 30.7282 24.8126 30.725 24.8032L28.3952 17.4221C28.2341 16.8848 27.6679 16.5797 27.1306 16.7408C26.5933 16.9018 26.2882 17.468 26.4493 18.0054C26.4522 18.0149 26.4552 18.0244 26.4583 18.0339L28.7882 25.4149C28.9492 25.9522 29.5154 26.2573 30.0527 26.0962C30.59 25.9352 30.895 25.3691 30.734 24.8317Z" fill="#4E7524"/>
<path d="M25.816 26.3509L24.6292 22.5787C24.4538 22.0458 23.8796 21.7561 23.3467 21.9316C22.8239 22.1037 22.5334 22.661 22.6915 23.1881L23.8783 26.9603C24.0537 27.4932 24.6279 27.7829 25.1608 27.6074C25.6835 27.4353 25.9741 26.878 25.816 26.3509Z" fill="#4E7524"/>
<path d="M20.9162 27.9062L19.3677 22.9941C19.1991 22.4591 18.6288 22.1619 18.0937 22.3304C17.5587 22.4989 17.2615 23.0693 17.43 23.6043L18.9786 28.5164C19.1471 29.0515 19.7174 29.3487 20.2525 29.1802C20.7875 29.0116 21.0847 28.4413 20.9162 27.9062Z" fill="#4E7524"/>
<path d="M16.0091 29.4657L15.7051 28.4821C15.5394 27.9462 14.9706 27.646 14.4347 27.8117C13.8988 27.9774 13.5986 28.5462 13.7643 29.0821L14.0683 30.0658C14.234 30.6017 14.8028 30.9019 15.3387 30.7362C15.8746 30.5704 16.1748 30.0016 16.0091 29.4657Z" fill="#4E7524"/>
</g>
<defs>
<clipPath id="clip0_7065_1251">
<rect width="40" height="40" fill="white"/>
</clipPath>
</defs>
</svg>
