<svg width="40" height="40" viewBox="0 0 40 40" fill="none" xmlns="http://www.w3.org/2000/svg">
<g clip-path="url(#clip0_7065_1168)">
<path d="M20.969 10.124C20.4079 10.124 19.9531 10.5788 19.9531 11.1399V13.0936C19.9531 13.6547 20.4079 14.1095 20.969 14.1095C21.5301 14.1095 21.9849 13.6547 21.9849 13.0936V11.1399C21.9849 10.5788 21.5301 10.124 20.969 10.124Z" fill="#4E7524"/>
<path d="M20.969 31.6489C20.4079 31.6489 19.9531 32.1037 19.9531 32.6648V34.6185C19.9531 35.1796 20.4079 35.6344 20.969 35.6344C21.5301 35.6344 21.9849 35.1796 21.9849 34.6185V32.6648C21.9849 32.1037 21.5301 31.6489 20.969 31.6489Z" fill="#4E7524"/>
<path d="M32.7039 21.8628H30.7503C30.1892 21.8628 29.7344 22.3176 29.7344 22.8787C29.7344 23.4398 30.1892 23.8946 30.7503 23.8946H32.7039C33.265 23.8946 33.7198 23.4398 33.7198 22.8787C33.7198 22.3176 33.265 21.8628 32.7039 21.8628Z" fill="#4E7524"/>
<path d="M30.0242 30.4941C30.0135 30.4829 30.0026 30.4721 29.9914 30.4614L28.6098 29.0797C28.2222 28.6741 27.5791 28.6594 27.1735 29.047C26.7678 29.4346 26.7531 30.0777 27.1407 30.4833C27.1514 30.4945 27.1623 30.5054 27.1735 30.5161L28.5551 31.8977C28.9427 32.3033 29.5858 32.318 29.9914 31.9304C30.3971 31.5428 30.4118 30.8998 30.0242 30.4941Z" fill="#4E7524"/>
<path d="M29.4113 14.3749C29.0212 14.0168 28.4215 14.0184 28.0333 14.3787L22.6412 19.7708C20.9229 18.8446 18.779 19.4868 17.8528 21.2051C17.5749 21.7208 17.4295 22.2975 17.4297 22.8833L17.432 22.8786C17.431 24.8316 19.0133 26.4156 20.9663 26.4166C22.9192 26.4176 24.5032 24.8353 24.5042 22.8824C24.5045 22.2959 24.359 21.7186 24.0807 21.2024L29.4728 15.8103C29.8521 15.397 29.8246 14.7543 29.4113 14.3749ZM20.9681 24.3829C20.1374 24.3829 19.4638 23.7094 19.4638 22.8786C19.4647 22.0482 20.1377 21.3752 20.9681 21.3743C21.7989 21.3743 22.4724 22.0479 22.4724 22.8786C22.4724 23.7094 21.7989 24.3829 20.9681 24.3829Z" fill="#4E7524"/>
<path d="M37.0233 10.4286C37.4109 10.8342 38.054 10.8489 38.4596 10.4613C38.8653 10.0737 38.88 9.43065 38.4924 9.02499C38.4817 9.01382 38.4708 9.00288 38.4596 8.99225L34.8587 5.39207C34.453 5.00446 33.8099 5.01916 33.4223 5.42481C33.0472 5.81749 33.0472 6.43571 33.4223 6.82839L34.5093 7.9154L32.3517 10.073C29.4839 7.50802 25.8302 5.99262 21.9888 5.77498V2.03179H25.5757C26.1368 2.03179 26.5916 1.57698 26.5916 1.0159C26.5916 0.454809 26.1368 0 25.5757 0H16.3693C15.8082 0 15.3534 0.454809 15.3534 1.0159C15.3534 1.57698 15.8082 2.03179 16.3693 2.03179H19.9562V5.77655C15.7689 6.01372 11.8169 7.7899 8.85951 10.7638C8.47191 11.1695 8.4866 11.8125 8.89225 12.2001C9.28494 12.5753 9.90323 12.5753 10.2958 12.2001C16.1928 6.30317 25.7536 6.30309 31.6506 12.2C31.6506 12.2 31.6507 12.2001 31.6508 12.2001C37.5383 18.0877 37.5383 27.6676 31.6508 33.5551C25.7633 39.4426 16.1833 39.4426 10.2958 33.5551C9.89017 33.1675 9.24711 33.1822 8.85951 33.5878C8.48433 33.9805 8.48433 34.5987 8.85951 34.9914C15.5551 41.6768 26.4023 41.6685 33.0877 34.973C39.4856 28.5655 39.7924 18.2855 33.7881 11.5078L35.9464 9.34938L37.0233 10.4286Z" fill="#4E7524"/>
<path d="M11.559 15.3477H2.24246C1.68137 15.3477 1.22656 15.8025 1.22656 16.3636C1.22656 16.9246 1.68137 17.3794 2.24246 17.3794H11.559C12.1201 17.3794 12.5749 16.9246 12.5749 16.3636C12.5749 15.8025 12.1201 15.3477 11.559 15.3477Z" fill="#4E7524"/>
<path d="M13.927 21.8628H4.60965C4.04856 21.8628 3.59375 22.3176 3.59375 22.8787C3.59375 23.4398 4.04856 23.8946 4.60965 23.8946H13.927C14.4881 23.8946 14.9429 23.4398 14.9429 22.8787C14.9429 22.3176 14.4881 21.8628 13.927 21.8628Z" fill="#4E7524"/>
<path d="M11.559 28.377H2.24246C1.68137 28.377 1.22656 28.8318 1.22656 29.3928C1.22656 29.9539 1.68137 30.4087 2.24246 30.4087H11.559C12.1201 30.4087 12.5749 29.9539 12.5749 29.3928C12.5749 28.8318 12.1201 28.377 11.559 28.377Z" fill="#4E7524"/>
</g>
<defs>
<clipPath id="clip0_7065_1168">
<rect width="40" height="40" fill="white"/>
</clipPath>
</defs>
</svg>
