<svg width="9" height="13" viewBox="0 0 9 13" fill="none" xmlns="http://www.w3.org/2000/svg">
<path d="M4.93095 12.823L8.79954 8.95438C9.03557 8.71835 9.03557 8.33555 8.79954 8.09952C8.56346 7.86344 8.18076 7.86344 7.94468 8.09952L5.10799 10.9362L5.10799 0.604467C5.10799 0.270656 4.83733 -1.80932e-07 4.50352 -1.95523e-07C4.16976 -2.10112e-07 3.89905 0.270656 3.89905 0.604467L3.89905 10.9362L1.06236 8.09961C0.826283 7.86353 0.443583 7.86353 0.207502 8.09961C0.0895592 8.2176 0.0304667 8.37235 0.0304667 8.52704C0.0304667 8.68174 0.0895592 8.83643 0.207502 8.95447L4.07609 12.823C4.31217 13.059 4.69487 13.059 4.93095 12.823Z" fill="#212121"/>
</svg>
