<svg width="97" height="97" viewBox="0 0 97 97" fill="none" xmlns="http://www.w3.org/2000/svg">
<path d="M50.2557 87.6455C48.8955 87.6455 47.793 88.7481 47.793 90.1082C47.7919 91.1937 46.9121 92.0735 45.8266 92.0746H12.72C11.6345 92.0735 10.7545 91.1937 10.7536 90.1082C10.7536 88.7481 9.65103 87.6455 8.29085 87.6455C6.93067 87.6455 5.82812 88.7481 5.82812 90.1082C5.83229 93.9128 8.91544 96.9959 12.72 97.0001H45.8266C49.6311 96.9959 52.7143 93.9128 52.7185 90.1082C52.7185 88.7481 51.6159 87.6455 50.2557 87.6455Z" fill="white"/>
<path d="M46.9656 58.981H11.5705C5.20951 58.9872 0.0542632 64.1417 0.046875 70.5027V78.768C0.0500955 81.5037 2.26693 83.7206 5.00264 83.7238L53.5316 83.7219C56.2673 83.7187 58.4842 81.5018 58.4874 78.7661V70.5027C58.4802 64.1425 53.3259 58.9882 46.9656 58.981ZM53.5619 78.7661C53.5602 78.782 53.5475 78.7947 53.5316 78.7964H5.00264C4.98673 78.7947 4.97403 78.782 4.97233 78.7661V70.5027C4.97555 66.86 7.92779 63.9077 11.5705 63.9045H46.9656C50.6069 63.9087 53.5578 66.8596 53.5619 70.5008V78.7661Z" fill="white"/>
<path d="M46.2596 30.1767C51.9557 20.8015 48.9733 8.5839 39.5981 2.88762C35.8282 0.596901 31.4027 -0.373413 27.02 0.129551C18.0992 1.12222 10.7717 8.29823 9.59145 17.1906C8.95512 21.9253 10.0431 26.731 12.6566 30.7299C15 34.3349 16.6943 38.3221 17.6635 42.5112C17.9079 43.5455 18.1409 44.614 18.355 45.7052C16.2175 46.5779 14.8204 48.657 14.82 50.9659V53.8208C14.82 55.181 15.9226 56.2835 17.2827 56.2835C18.6429 56.2835 19.7455 55.181 19.7455 53.8208V50.9659C19.7455 50.5475 20.0848 50.2082 20.5032 50.2082H38.0795C38.498 50.2082 38.8373 50.5475 38.8373 50.9659V53.8208C38.8373 55.181 39.9398 56.2835 41.3 56.2835C42.6602 56.2835 43.7627 55.181 43.7627 53.8208V50.9659C43.7607 48.658 42.363 46.5806 40.2259 45.7089C40.44 44.6197 40.6711 43.5531 40.9173 42.5207C41.8304 38.6011 43.5733 34.5642 46.2596 30.1767ZM36.1093 41.3821C35.81 42.6419 35.541 43.9509 35.2777 45.2865H23.2899C23.0342 43.949 22.7576 42.6343 22.4583 41.3764C21.357 36.6291 19.4337 32.1109 16.775 28.0266C14.8098 25.0169 13.9935 21.4005 14.4752 17.8385C15.3599 11.1607 20.8632 5.77109 27.5637 5.02659C35.7623 4.07351 43.1813 9.94712 44.1344 18.1457C44.2011 18.719 44.2344 19.2958 44.2344 19.873C44.2343 22.6036 43.481 25.2814 42.0578 27.6117C39.1044 32.4481 37.1588 36.9473 36.1093 41.3821Z" fill="white"/>
<path d="M96.629 44.4877C96.3928 43.7318 96.0308 43.0214 95.5581 42.3862C94.9926 41.6414 94.9888 40.6119 95.5486 39.8629C97.8681 36.7455 97.2214 32.3377 94.1038 30.0182C93.4686 29.5456 92.758 29.1836 92.0023 28.9473C91.1095 28.6726 90.5057 27.841 90.5209 26.9071C90.5491 25.0293 89.819 23.2194 88.4958 21.8869C86.6087 19.9644 83.7868 19.2936 81.2364 20.1611C80.3532 20.4606 79.3784 20.1438 78.84 19.3825C76.5913 16.2133 72.1995 15.4671 69.0304 17.7158C68.3849 18.1737 67.8216 18.7372 67.3637 19.3825C66.8272 20.1404 65.8578 20.4581 64.9767 20.1649C61.2959 18.9227 57.3051 20.8995 56.063 24.5803C55.8097 25.3309 55.685 26.1188 55.6941 26.9108C55.7085 27.844 55.1048 28.6747 54.2127 28.9492C50.5038 30.1082 48.4367 34.0543 49.5955 37.7633C49.8317 38.5192 50.1937 39.2296 50.6664 39.8648C51.2266 40.6112 51.2266 41.638 50.6664 42.3843C48.3469 45.5018 48.9936 49.9095 52.1112 52.229C52.7464 52.7017 53.457 53.0637 54.2127 53.2999C55.1052 53.5738 55.7091 54.4049 55.6941 55.3383C55.6655 57.216 56.3958 59.0261 57.7193 60.3585C59.6063 62.2809 62.4282 62.9517 64.9786 62.0843C65.8624 61.7846 66.8378 62.1013 67.3769 62.8629C69.6256 66.032 74.0174 66.7782 77.1865 64.5296C77.832 64.0717 78.3954 63.5081 78.8532 62.8629C79.3918 62.1028 80.3652 61.7865 81.2478 62.0843C84.9286 63.3264 88.9194 61.3494 90.1615 57.6688C90.4146 56.919 90.5393 56.1317 90.5304 55.3402C90.5154 54.4068 91.1193 53.5757 92.0118 53.3018C95.7208 52.1428 97.788 48.1966 96.629 44.4877ZM91.9176 36.2861C91.8468 36.5123 91.7384 36.725 91.5969 36.915C89.7254 39.4039 89.7273 42.832 91.5969 45.3224C92.2923 46.2578 92.0978 47.5798 91.1623 48.275C90.9718 48.4167 90.7588 48.5251 90.5322 48.5959C87.558 49.5102 85.5458 52.28 85.5954 55.3912C85.6081 55.9532 85.3905 56.4958 84.993 56.8934C84.4273 57.4746 83.576 57.6749 82.8107 57.4068C79.8668 56.4168 76.6222 57.4748 74.8276 60.0097C74.1532 60.9603 72.8359 61.1841 71.8852 60.5095C71.6918 60.3721 71.5228 60.2031 71.3855 60.0097C69.5894 57.4697 66.3382 56.4111 63.3911 57.4068C62.6241 57.6631 61.778 57.4602 61.2106 56.8839C60.813 56.4865 60.5953 55.9437 60.6082 55.3817C60.6579 52.2705 58.6456 49.5007 55.6714 48.5864C54.5592 48.2383 53.9397 47.0543 54.2879 45.942C54.3588 45.7159 54.4671 45.5031 54.6086 45.3129C56.4771 42.8248 56.4771 39.4012 54.6086 36.9131C53.9132 35.9777 54.1078 34.6557 55.0432 33.9605C55.2338 33.8188 55.4467 33.7104 55.6733 33.6396C58.6471 32.7248 60.6592 29.9553 60.6101 26.8444C60.5978 26.283 60.8155 25.7409 61.2125 25.344C61.7761 24.7609 62.6267 24.5576 63.393 24.823C66.3373 25.817 69.5849 24.7611 71.3817 22.2258C72.0563 21.2752 73.3735 21.0514 74.3241 21.726C74.5175 21.8634 74.6865 22.0324 74.8238 22.2258C76.6207 24.7611 79.8683 25.817 82.8125 24.823C83.5798 24.566 84.4266 24.7681 84.9949 25.344C85.3924 25.7416 85.61 26.2842 85.5973 26.8462C85.5483 29.9572 87.5603 32.7267 90.5341 33.6415C91.6465 33.9899 92.2658 35.1739 91.9176 36.2861Z" fill="white"/>
<path d="M73.1021 29.3564C66.6039 29.3564 61.3359 34.6244 61.3359 41.1226C61.3359 47.6208 66.6039 52.8887 73.1021 52.8887C79.6003 52.8887 84.8682 47.6208 84.8682 41.1226C84.8682 41.1201 84.8682 41.1175 84.8682 41.115C84.8569 34.6227 79.5944 29.3636 73.1021 29.3564ZM73.1021 47.9633C69.3241 47.9633 66.2614 44.9006 66.2614 41.1226C66.2614 37.3446 69.3241 34.2819 73.1021 34.2819C76.8771 34.2819 79.9386 37.34 79.9428 41.115C79.9428 44.8942 76.8814 47.9591 73.1021 47.9633Z" fill="white"/>
</svg>
