<svg width="96" height="97" viewBox="0 0 96 97" fill="none" xmlns="http://www.w3.org/2000/svg">
<g clip-path="url(#clip0_7065_1143)">
<path d="M87.6613 40.3003L82.1843 7.94482C81.6571 4.77557 78.939 2.45643 75.7586 2.46192H20.2349C17.0544 2.45643 14.3364 4.77557 13.8091 7.94482L8.33213 40.3003C8.10525 41.6413 8.9972 42.9141 10.3244 43.1431C11.6515 43.3724 12.911 42.4711 13.1379 41.1301L18.6148 8.77464C18.7461 7.97399 19.4318 7.38705 20.2349 7.38781H75.7586C76.5618 7.38705 77.2474 7.97399 77.3786 8.77464L82.8556 41.1301C83.0823 42.4711 84.3419 43.3724 85.6691 43.1431C86.9963 42.9139 87.8882 41.6411 87.6613 40.3003Z" fill="white"/>
<path d="M65.6954 65.5746C64.3658 65.3615 63.117 66.2777 62.9059 67.6211C62.9023 67.6435 62.8991 67.6659 62.8963 67.6882L62.0601 73.5462C61.9813 74.0883 61.5223 74.4909 60.98 74.4935H35.0164C34.4741 74.4909 34.0151 74.0883 33.9363 73.5462L33.0982 67.6901C32.9293 66.3406 31.7094 65.3852 30.374 65.5559C29.0384 65.7266 28.0928 66.959 28.2617 68.3085C28.2653 68.3367 28.2692 68.3648 28.2737 68.3928L29.1119 74.2508C29.5502 77.2081 32.057 79.4008 35.0164 79.4154H60.9782C63.9375 79.4008 66.4443 77.2081 66.8827 74.2508L67.7208 68.3928C67.9319 67.0497 67.025 65.7878 65.6954 65.5746Z" fill="white"/>
<path d="M86.4853 47.4376C86.1275 47.4007 85.7681 47.3821 85.4086 47.3823H10.5945C4.74554 47.3799 0.00225147 52.1688 1.42053e-06 58.0785C-0.000186084 58.443 0.0181893 58.8075 0.0547526 59.1702L2.73981 85.7036C3.23313 90.7267 7.42122 94.55 12.4169 94.538H83.5822C88.576 94.5503 92.7631 90.7301 93.2593 85.7093L95.9443 59.1702C96.5389 53.2911 92.3037 48.0382 86.4853 47.4376ZM91.088 58.6683L88.4104 85.2018C88.1659 87.7092 86.0758 89.6186 83.5822 89.6123H12.4169C9.92515 89.619 7.83579 87.7126 7.58866 85.2075L4.90361 58.6683C4.73035 57.042 5.25611 55.4185 6.34739 54.2104C7.42591 52.9912 8.97038 52.2978 10.5887 52.3063H85.4028C88.5593 52.3065 91.1178 54.892 91.1176 58.0813C91.1176 58.2772 91.1078 58.4732 91.088 58.6683Z" fill="white"/>
<path d="M68.1465 13.2612H27.8594C26.5131 13.2612 25.4219 14.3639 25.4219 15.7242C25.4219 17.0845 26.5131 18.1871 27.8594 18.1871H68.1465C69.4928 18.1871 70.5841 17.0845 70.5841 15.7242C70.5841 14.3639 69.4928 13.2612 68.1465 13.2612Z" fill="white"/>
<path d="M69.7579 23.8481H26.2344C24.8881 23.8481 23.7969 24.9508 23.7969 26.3111C23.7969 27.6714 24.8881 28.774 26.2344 28.774H69.7579C71.1041 28.774 72.1954 27.6714 72.1954 26.3111C72.1954 24.9508 71.1041 23.8481 69.7579 23.8481Z" fill="white"/>
<path d="M71.9073 34.4404H24.0938C22.7475 34.4404 21.6562 35.5431 21.6562 36.9034C21.6562 38.2637 22.7475 39.3663 24.0938 39.3663H71.9073C73.2536 39.3663 74.3449 38.2637 74.3449 36.9034C74.3449 35.5431 73.2536 34.4404 71.9073 34.4404Z" fill="white"/>
</g>
<defs>
<clipPath id="clip0_7065_1143">
<rect width="96" height="97" fill="white"/>
</clipPath>
</defs>
</svg>
