<svg width="97" height="97" viewBox="0 0 97 97" fill="none" xmlns="http://www.w3.org/2000/svg">
<path d="M69.6911 27.7997L23.2204 16.4283C17.2444 14.9648 11.2134 18.6227 9.74979 24.5986C9.71019 24.7604 9.6742 24.9232 9.6418 25.0867C9.33582 26.4121 10.1621 27.7345 11.4875 28.0407C12.813 28.3467 14.1354 27.5205 14.4416 26.195C14.4539 26.1418 14.4645 26.088 14.4732 26.034C15.139 22.6671 18.4081 20.4775 21.775 21.1434C21.8676 21.1618 21.9599 21.1823 22.0516 21.2046L68.5204 32.5836C69.8476 32.8818 71.1653 32.0476 71.4633 30.7204C71.7533 29.4287 70.9707 28.1389 69.6911 27.7997Z" fill="white"/>
<path d="M87.2933 27.1309L46.0346 1.66183C40.7991 -1.5696 33.935 0.0550172 30.7035 5.29055C30.6164 5.43189 30.5323 5.57493 30.4516 5.72005C29.7676 6.89584 30.1664 8.40356 31.3422 9.08732C32.518 9.77127 34.0257 9.37246 34.7097 8.19667C34.725 8.17034 34.7398 8.14362 34.7542 8.11672C36.4245 5.11852 40.2089 4.04201 43.2071 5.71229C43.288 5.75738 43.3678 5.80417 43.4466 5.85268L84.7071 31.3218C85.0946 31.5618 85.5415 31.6891 85.9974 31.6893C87.3577 31.6901 88.4611 30.5882 88.4619 29.2278C88.4624 28.3734 88.02 27.5797 87.2933 27.1309Z" fill="white"/>
<path d="M48.4966 54.4038C41.9401 54.4038 36.625 59.7189 36.625 66.2754C36.625 72.8318 41.9401 78.1469 48.4966 78.1469C55.053 78.1469 60.3681 72.8318 60.3681 66.2754C60.3607 59.7218 55.05 54.411 48.4966 54.4038ZM48.4966 73.221C44.6606 73.221 41.551 70.1114 41.551 66.2754C41.551 62.4394 44.6606 59.3298 48.4966 59.3298C52.3325 59.3298 55.4421 62.4394 55.4421 66.2754C55.438 70.1095 52.3306 73.2168 48.4966 73.221Z" fill="white"/>
<path d="M83.9861 35.562H13.0183C6.92317 35.5694 1.98395 40.5086 1.97656 46.6037V85.9545C1.98187 92.0512 6.92165 96.9926 13.0183 97H83.9861C90.082 96.9926 95.0216 92.0523 95.0278 85.9564V46.6037C95.0205 40.5084 90.0812 35.5692 83.9861 35.562ZM90.1019 85.9621C90.0956 89.3366 87.3606 92.0699 83.9861 92.0741H13.0183C9.64021 92.0709 6.90271 89.3326 6.90062 85.9545V46.6037C6.90384 43.2264 9.64097 40.4893 13.0183 40.4861H83.9861C87.3634 40.4893 90.1006 43.2264 90.1038 46.6037L90.1019 85.9621Z" fill="white"/>
<path d="M83.2748 57.3024C78.3046 56.1611 74.4231 52.2804 73.2808 47.3103C73.0268 46.188 72.0293 45.3911 70.8785 45.3911H26.1262C24.9754 45.3911 23.9779 46.188 23.7238 47.3103C22.6854 51.8415 19.3602 55.5035 14.95 56.9728C13.0773 57.5834 11.8106 59.3302 11.8125 61.3001V71.2694C11.8131 73.237 13.0792 74.9811 14.95 75.591C19.3602 77.0603 22.6854 80.7223 23.7238 85.2535C23.9779 86.3758 24.9754 87.1727 26.1262 87.1727H70.8804C72.0312 87.1727 73.0287 86.3758 73.2827 85.2535C74.4248 80.2828 78.3061 76.4015 83.2767 75.2594C84.3991 75.0054 85.196 74.0079 85.196 72.8571V59.7048C85.1958 58.5533 84.398 57.5558 83.2748 57.3024ZM80.2681 70.9947C75.0036 72.834 70.8648 76.9727 69.0256 82.2373H27.981C26.1434 76.9725 22.0049 72.8332 16.7404 70.9947V61.5596C22.0047 59.7209 26.1431 55.5818 27.981 50.3171H69.0256C70.8652 55.5808 75.0042 59.7188 80.2681 61.5577V70.9947Z" fill="white"/>
</svg>
