<svg width="672" height="714" viewBox="0 0 672 714" fill="none" xmlns="http://www.w3.org/2000/svg">
<path d="M171.486 603.56C203.776 637.634 283.051 625.159 317.394 603.56C428.849 533.455 624.205 416.746 633.057 247.674C636.82 175.804 573.43 138.078 546.955 127.011C483.36 100.419 413.58 92.4446 344.717 89.3668C272.79 86.1522 195.635 88.6555 130.85 123.742C106.317 137.038 83.1669 154.068 67.3092 177.336C51.2051 200.974 41.9559 229.111 39.4931 257.522C35.5252 303.347 47.8666 349.295 66.5156 391.344C85.1645 433.393 110.025 472.324 132.861 512.266C147.747 538.338 144.286 574.848 171.486 603.56Z" fill="#D8F1BC" fill-opacity="0.1"/>
<path opacity="0.7" d="M54.7665 261.562C30.2105 301.571 62.7786 374.916 92.5302 402.498C189.093 492.012 352.387 650.504 517.989 615.296C588.384 600.329 608.418 529.335 612.255 500.898C621.481 432.587 611.124 363.121 596.274 295.808C580.763 225.499 558.376 151.622 507.717 98.1247C488.525 77.8696 466.083 59.9158 439.504 50.6206C412.504 41.183 382.931 39.5316 354.85 44.506C309.56 52.5337 268.372 76.3467 232.583 105.243C196.793 134.14 165.624 168.229 132.952 200.625C111.621 221.752 75.4603 227.858 54.7665 261.562Z" fill="white" fill-opacity="0.18"/>
<path d="M168.99 258.179L103.589 238.372C101.044 237.606 99.6207 234.925 100.387 232.381L112.058 193.874C112.824 191.33 115.506 189.907 118.051 190.674L183.452 210.481C185.997 211.247 187.42 213.928 186.654 216.472L174.983 254.978C174.216 257.523 171.535 258.959 168.99 258.179Z" stroke="#D8F1BC" stroke-miterlimit="10"/>
<path d="M110.086 200.399L184.682 222.997" stroke="#D8F1BC" stroke-miterlimit="10"/>
<path d="M107.82 207.882L182.416 230.48" stroke="#D8F1BC" stroke-miterlimit="10"/>
<path d="M159.714 244.473C159.317 245.8 159.509 247.154 160.138 248.276C159.071 248.809 157.785 248.946 156.54 248.577C153.967 247.797 152.517 245.102 153.297 242.53C154.077 239.959 156.786 238.509 159.358 239.288C160.603 239.671 161.588 240.506 162.177 241.545C161.027 242.134 160.124 243.16 159.714 244.473Z" stroke="#D8F1BC" stroke-miterlimit="10"/>
<path d="M169.003 247.291C168.223 249.849 165.514 251.299 162.955 250.533C160.397 249.753 158.946 247.045 159.713 244.487C160.492 241.929 163.202 240.479 165.76 241.245C168.332 242.011 169.783 244.719 169.003 247.291Z" stroke="#D8F1BC" stroke-miterlimit="10"/>
<path d="M617.667 344.794L563.417 328.366C560.872 327.6 559.449 324.919 560.215 322.374L569.724 291.008C570.49 288.464 573.172 287.042 575.717 287.808L629.967 304.236C632.512 305.002 633.935 307.683 633.169 310.227L623.66 341.593C622.894 344.138 620.212 345.56 617.667 344.794Z" stroke="#D8F1BC" stroke-miterlimit="10"/>
<path d="M568.258 295.851L631.703 315.07" stroke="#D8F1BC" stroke-miterlimit="10"/>
<path d="M566.328 302.225L629.759 321.444" stroke="#D8F1BC" stroke-miterlimit="10"/>
<path d="M610.472 333.345C610.13 334.467 610.294 335.629 610.827 336.573C609.924 337.025 608.83 337.148 607.776 336.833C605.587 336.176 604.356 333.878 605.013 331.69C605.669 329.501 607.982 328.27 610.157 328.94C611.211 329.255 612.059 329.98 612.551 330.855C611.594 331.348 610.814 332.223 610.472 333.345Z" stroke="#D8F1BC" stroke-miterlimit="10"/>
<path d="M618.36 335.739C617.704 337.914 615.391 339.145 613.216 338.488C611.04 337.832 609.809 335.52 610.466 333.345C611.122 331.17 613.435 329.939 615.61 330.596C617.799 331.252 619.031 333.55 618.36 335.739Z" stroke="#D8F1BC" stroke-miterlimit="10"/>
<path d="M543.13 154.406L463.938 190.657L482.802 231.848L561.995 195.597L543.13 154.406Z" stroke="#D8F1BC" stroke-miterlimit="10"/>
<path d="M555.197 189.62L543.211 163.452C540.885 164.519 538.121 163.493 537.054 161.168L473.035 190.468C474.102 192.794 473.076 195.557 470.75 196.624L482.736 222.792C485.062 221.725 487.825 222.75 488.893 225.076L552.912 195.776C551.831 193.436 552.857 190.687 555.197 189.62Z" stroke="#D8F1BC" stroke-miterlimit="10"/>
<path d="M520.216 202.552C525.43 198.548 526.409 191.077 522.404 185.865C518.399 180.653 510.926 179.673 505.713 183.677C500.5 187.681 499.52 195.152 503.525 200.365C507.53 205.577 515.003 206.556 520.216 202.552Z" stroke="#D8F1BC" stroke-miterlimit="10"/>
<path d="M516.201 198.895L517.09 200.837L516.242 201.22L515.352 199.291C513.656 199.962 511.822 200.071 510.604 199.606L510.659 198.416C511.781 198.826 513.396 198.772 514.86 198.211L512.821 193.765C510.755 194.162 508.593 194.449 507.567 192.219C506.828 190.592 507.348 188.663 509.838 187.268L508.949 185.325L509.797 184.942L510.687 186.871C511.973 186.337 513.423 186.132 514.6 186.351L514.627 187.541C513.396 187.363 512.178 187.541 511.165 187.938L513.218 192.425C515.339 192 517.596 191.631 518.636 193.888C519.402 195.53 518.814 197.513 516.201 198.895ZM512.287 192.589L510.345 188.362C508.675 189.306 508.306 190.564 508.798 191.631C509.387 192.917 510.741 192.862 512.287 192.589ZM517.446 194.517C516.83 193.177 515.393 193.286 513.779 193.601L515.722 197.828C517.514 196.843 517.938 195.598 517.446 194.517Z" fill="#D8F1BC"/>
<path d="M104.378 341.308L43.7031 346.551L46.4303 378.1L107.105 372.858L104.378 341.308Z" stroke="#D8F1BC" stroke-miterlimit="10"/>
<path d="M104.036 367.31L102.298 347.27C100.506 347.421 98.9322 346.107 98.7817 344.315L49.7444 348.556C49.8949 350.348 48.5814 351.921 46.7891 352.071L48.5267 372.111C50.3191 371.961 51.8926 373.274 52.0431 375.066L101.08 370.825C100.93 369.047 102.257 367.474 104.036 367.31Z" stroke="#D8F1BC" stroke-miterlimit="10"/>
<path d="M83.7063 358.979C84.103 363.562 80.7098 367.597 76.1263 367.994C71.5427 368.39 67.5064 364.998 67.1097 360.416C66.7129 355.833 70.1061 351.798 74.6896 351.401C79.2732 351.004 83.3095 354.397 83.7063 358.979Z" stroke="#D8F1BC" stroke-miterlimit="10"/>
<path d="M76.1847 364.259L76.3079 365.75L75.6648 365.805L75.5417 364.328C74.2692 364.369 73.0378 364.013 72.34 363.411L72.6547 362.645C73.2978 363.179 74.3787 363.521 75.4733 363.493L75.1723 360.087C73.7219 359.855 72.2306 359.54 72.0801 357.83C71.9706 356.586 72.7779 355.437 74.7481 355.108L74.625 353.617L75.268 353.562L75.3912 355.04C76.3626 354.999 77.3614 355.19 78.0866 355.614L77.8266 356.408C77.0604 356.011 76.2121 355.833 75.4596 355.861L75.7606 359.294C77.252 359.513 78.8391 359.8 78.9759 361.537C79.0854 362.796 78.2234 363.959 76.1847 364.259ZM75.0902 359.185L74.8165 355.943C73.4893 356.175 72.9557 356.914 73.0241 357.735C73.1062 358.719 73.9956 359.007 75.0902 359.185ZM78.0319 361.674C77.9498 360.648 76.9646 360.388 75.829 360.21L76.1027 363.452C77.5256 363.22 78.1003 362.495 78.0319 361.674Z" fill="#D8F1BC"/>
<path d="M598.763 172.863C605.337 172.863 610.667 167.535 610.667 160.962C610.667 154.39 605.337 149.062 598.763 149.062C592.189 149.062 586.859 154.39 586.859 160.962C586.859 167.535 592.189 172.863 598.763 172.863Z" stroke="#D8F1BC" stroke-miterlimit="10"/>
<path d="M599.291 167.569V169.703H598.361V167.583C596.541 167.487 594.831 166.817 593.914 165.887L594.448 164.833C595.296 165.668 596.787 166.297 598.361 166.393V161.496C596.308 160.99 594.229 160.36 594.229 157.912C594.229 156.12 595.515 154.588 598.361 154.355V152.221H599.291V154.342C600.687 154.396 602.082 154.807 603.068 155.491L602.602 156.585C601.562 155.915 600.372 155.559 599.291 155.504V160.429C601.398 160.935 603.601 161.523 603.601 164.013C603.601 165.846 602.247 167.405 599.291 167.569ZM598.361 160.21V155.559C596.445 155.723 595.583 156.708 595.583 157.885C595.583 159.293 596.828 159.813 598.361 160.21ZM602.247 164.108C602.247 162.645 600.892 162.139 599.291 161.742V166.393C601.33 166.242 602.247 165.299 602.247 164.108Z" fill="#D8F1BC"/>
<path d="M520.344 320.144C526.743 318.637 530.707 312.229 529.199 305.831C527.691 299.434 521.281 295.471 514.883 296.978C508.484 298.486 504.519 304.894 506.028 311.291C507.536 317.689 513.945 321.652 520.344 320.144Z" stroke="#D8F1BC" stroke-miterlimit="10"/>
<path d="M514.638 314.482L513.516 316.301L512.722 315.809L513.83 314.003C512.325 312.963 511.217 311.5 510.93 310.227L511.942 309.612C512.23 310.775 513.174 312.088 514.446 312.991L517.005 308.819C515.527 307.314 514.077 305.686 515.363 303.593C516.293 302.075 518.195 301.432 520.74 302.731L521.862 300.912L522.655 301.405L521.547 303.21C522.71 303.99 523.682 305.071 524.16 306.165L523.189 306.862C522.655 305.741 521.821 304.824 520.931 304.209L518.345 308.408C519.878 309.94 521.451 311.609 520.138 313.729C519.207 315.261 517.237 315.877 514.638 314.482ZM517.702 307.711L520.138 303.744C518.414 302.882 517.169 303.279 516.553 304.277C515.814 305.495 516.594 306.589 517.702 307.711ZM518.961 313.073C519.727 311.828 518.838 310.679 517.675 309.516L515.24 313.483C517.059 314.427 518.332 314.099 518.961 313.073Z" fill="#D8F1BC"/>
<path d="M346.794 78.8614C349.531 84.8391 346.89 91.9111 340.911 94.6332C334.932 97.369 327.858 94.729 325.135 88.7513C322.399 82.7735 325.04 75.7015 331.019 72.9794C336.998 70.2436 344.072 72.8836 346.794 78.8614Z" stroke="#D8F1BC" stroke-miterlimit="10"/>
<path d="M339.194 89.5856L340.084 91.528L339.235 91.911L338.36 89.9823C336.663 90.6526 334.83 90.762 333.612 90.2969L333.667 89.1069C334.789 89.5172 336.403 89.4762 337.867 88.9017L335.829 84.456C333.763 84.8527 331.601 85.1399 330.575 82.9103C329.836 81.2825 330.356 79.3537 332.859 77.9585L331.97 76.0161L332.818 75.6331L333.694 77.5618C334.98 77.0283 336.431 76.8231 337.607 77.042L337.635 78.2321C336.403 78.0542 335.185 78.2321 334.173 78.6288L336.225 83.1155C338.346 82.7051 340.604 82.3221 341.644 84.5928C342.396 86.2206 341.808 88.204 339.194 89.5856ZM335.281 83.2796L333.352 79.0528C331.683 79.9967 331.313 81.2551 331.792 82.3221C332.381 83.6079 333.735 83.5532 335.281 83.2796ZM340.439 85.222C339.824 83.8815 338.387 83.9909 336.773 84.3055L338.702 88.5323C340.494 87.5338 340.932 86.3027 340.439 85.222Z" fill="#D8F1BC"/>
<path d="M306.705 560.827C310.81 569.814 306.856 580.415 297.866 584.519C288.877 588.622 278.273 584.669 274.169 575.682C270.064 566.695 274.018 556.094 283.008 551.99C291.997 547.9 302.601 551.853 306.705 560.827Z" stroke="#D8F1BC" stroke-miterlimit="10"/>
<path d="M295.284 576.94L296.625 579.868L295.352 580.442L294.025 577.542C291.48 578.554 288.716 578.705 286.897 578.007L286.979 576.229C288.675 576.845 291.097 576.776 293.286 575.928L290.235 569.253C287.129 569.841 283.887 570.279 282.354 566.927C281.246 564.492 282.026 561.579 285.775 559.5L284.434 556.572L285.706 555.998L287.033 558.898C288.976 558.104 291.138 557.79 292.917 558.118L292.972 559.91C291.124 559.65 289.277 559.91 287.772 560.498L290.851 567.228C294.039 566.599 297.432 566.038 298.992 569.444C300.1 571.893 299.224 574.875 295.284 576.94ZM289.428 567.461L286.527 561.114C284.01 562.536 283.462 564.424 284.188 566.025C285.063 567.953 287.088 567.885 289.428 567.461ZM297.172 570.374C296.255 568.364 294.094 568.528 291.658 568.993L294.559 575.34C297.254 573.863 297.911 572.002 297.172 570.374Z" fill="#D8F1BC"/>
<path d="M50.5436 283.006C43.1279 289.518 31.8263 288.793 25.3135 281.379C18.8008 273.965 19.5259 262.666 26.9417 256.155C34.3575 249.643 45.6591 250.368 52.1718 257.782C58.6846 265.196 57.9594 276.481 50.5436 283.006Z" stroke="#D8F1BC" stroke-miterlimit="10"/>
<path d="M31.8067 276.714L29.3986 278.834L28.4819 277.781L30.8763 275.674C29.1797 273.527 28.2356 270.928 28.3724 268.985L30.1101 268.548C30.0143 270.34 30.7805 272.651 32.2172 274.498L37.7311 269.656C36.2671 266.852 34.9126 263.87 37.6901 261.435C39.7014 259.67 42.7252 259.588 45.79 262.57L48.1981 260.45L49.1148 261.503L46.7204 263.61C48.0339 265.237 48.9643 267.221 49.1558 269.013L47.4592 269.574C47.1856 267.741 46.4057 266.044 45.3932 264.772L39.8382 269.656C41.3569 272.528 42.8757 275.606 40.0708 278.082C38.0321 279.874 34.9263 279.888 31.8067 276.714ZM39.1951 268.37L44.4354 263.76C42.342 261.763 40.3855 261.777 39.0583 262.939C37.4712 264.335 38.1279 266.263 39.1951 268.37ZM38.6342 276.618C40.2897 275.168 39.5098 273.13 38.3742 270.942L33.1339 275.551C35.323 277.713 37.2933 277.795 38.6342 276.618Z" fill="#D8F1BC"/>
<path d="M131.572 433.718C131.742 428.953 128.016 424.954 123.251 424.784C118.486 424.614 114.485 428.339 114.315 433.103C114.145 437.867 117.871 441.867 122.636 442.037C127.401 442.206 131.402 438.482 131.572 433.718Z" stroke="#D8F1BC" stroke-miterlimit="10"/>
<path d="M126.292 436.827L127.29 438.017L126.771 438.454L125.785 437.278C124.732 438.071 123.459 438.496 122.529 438.4L122.337 437.565C123.199 437.634 124.321 437.292 125.238 436.622L122.967 433.899C121.599 434.57 120.135 435.185 118.999 433.817C118.164 432.819 118.164 431.369 119.656 429.919L118.657 428.729L119.177 428.291L120.162 429.467C120.969 428.852 121.927 428.428 122.803 428.359L123.049 429.18C122.16 429.29 121.325 429.645 120.709 430.11L122.994 432.86C124.403 432.162 125.909 431.465 127.072 432.86C127.892 433.858 127.865 435.363 126.292 436.827ZM122.351 433.147L120.189 430.562C119.204 431.547 119.177 432.49 119.724 433.147C120.381 433.927 121.325 433.639 122.351 433.147ZM126.333 433.53C125.649 432.709 124.663 433.065 123.583 433.585L125.744 436.17C126.812 435.144 126.88 434.187 126.333 433.53Z" fill="#D8F1BC"/>
<path d="M397.984 605.748C401.035 609.414 400.542 614.859 396.875 617.909C393.208 620.959 387.763 620.467 384.712 616.801C381.661 613.135 382.153 607.691 385.82 604.64C389.473 601.59 394.919 602.082 397.984 605.748Z" stroke="#D8F1BC" stroke-miterlimit="10"/>
<path d="M394.698 614.708L395.697 615.898L395.177 616.336L394.192 615.159C393.138 615.953 391.866 616.377 390.935 616.281L390.744 615.447C391.606 615.515 392.728 615.173 393.644 614.503L391.373 611.781C390.005 612.451 388.541 613.067 387.405 611.699C386.571 610.7 386.571 609.25 388.062 607.8L387.063 606.61L387.583 606.172L388.568 607.349C389.375 606.733 390.333 606.309 391.209 606.241L391.455 607.062C390.566 607.171 389.731 607.527 389.116 607.992L391.4 610.741C392.81 610.044 394.315 609.346 395.478 610.741C396.299 611.74 396.271 613.244 394.698 614.708ZM390.771 611.028L388.609 608.443C387.624 609.428 387.597 610.372 388.144 611.028C388.801 611.808 389.731 611.521 390.771 611.028ZM394.739 611.411C394.055 610.591 393.07 610.946 391.989 611.466L394.151 614.051C395.231 613.026 395.3 612.068 394.739 611.411Z" fill="#D8F1BC"/>
<path d="M161.695 114.014C162.13 109.267 158.635 105.066 153.886 104.63C149.138 104.195 144.936 107.69 144.5 112.437C144.064 117.184 147.56 121.385 152.308 121.821C157.056 122.256 161.259 118.761 161.695 114.014Z" stroke="#D8F1BC" stroke-miterlimit="10"/>
<path d="M156.464 116.657L157.462 117.847L156.942 118.284L155.957 117.108C154.904 117.901 153.631 118.325 152.701 118.23L152.509 117.395C153.371 117.464 154.493 117.122 155.41 116.451L153.139 113.729C151.77 114.4 150.306 115.015 149.171 113.647C148.336 112.649 148.336 111.199 149.828 109.749L148.829 108.559L149.349 108.121L150.334 109.297C151.141 108.682 152.099 108.258 152.975 108.189L153.221 109.01C152.331 109.119 151.497 109.475 150.881 109.94L153.166 112.69C154.575 111.992 156.08 111.294 157.243 112.69C158.064 113.688 158.023 115.193 156.464 116.657ZM152.523 112.977L150.361 110.392C149.376 111.376 149.349 112.32 149.896 112.977C150.553 113.757 151.483 113.469 152.523 112.977ZM156.505 113.36C155.82 112.539 154.835 112.895 153.754 113.415L155.916 116C156.983 114.974 157.052 114.016 156.505 113.36Z" fill="#D8F1BC"/>
<path opacity="0.2" d="M347.655 467.098C347.655 467.098 337.106 520.638 272.402 532.703C272.402 532.703 255.505 546.176 249.881 554.151C244.258 562.126 214.253 575.682 183.796 617.977C153.339 660.273 107.859 525.959 107.859 525.959L208.26 395.584L347.655 467.098Z" fill="black" fill-opacity="0.7"/>
<path d="M405.174 215.774C405.174 215.774 440.064 198.73 447.739 201.671C455.415 204.612 462.749 222.258 433.428 239.152C404.12 256.045 412.836 287.52 412.836 287.52H433.77C433.77 287.52 446.33 292.636 451.215 299.202C456.099 305.768 459.588 328.215 462.379 335.835C465.171 343.454 463.775 351.046 456.099 353.535C456.099 353.535 451.215 374.82 452.61 384.258C454.006 393.697 453.308 399.77 444.237 400.919C435.165 402.068 426.094 394.367 426.792 384.258L419.814 409.537L424.698 419.249C424.698 419.249 433.77 422.286 443.539 430.657C453.308 439.029 463.077 441.313 460.286 450.642C457.495 459.971 451.912 470.025 422.605 458.371C393.298 446.716 368.875 400.919 368.875 400.919L351.266 241.231L405.174 215.774Z" fill="white"/>
<path opacity="0.4" d="M441.893 307.505C426.076 329.063 443.576 353.891 443.576 353.891C443.576 353.891 432.63 359.992 432.315 375.558C432.192 382.028 433.821 391.07 435.763 399.442C430.332 396.802 426.323 391.07 426.815 384.231L419.824 409.509L424.708 419.222C424.708 419.222 431.194 421.397 439.102 427.128C434.765 437.086 433.437 449.397 433.834 462.091C430.55 461.243 426.829 460.026 422.628 458.343C393.307 446.675 368.898 400.892 368.898 400.892L351.289 241.203L405.184 215.76C405.184 215.76 424.243 206.445 437.296 202.765C436.283 214.981 438.691 227.593 440.388 234.637C438.349 236.142 436.037 237.647 433.451 239.138C404.13 256.018 412.859 287.507 412.859 287.507H433.807C433.807 287.507 445.751 292.363 450.855 298.71C447.954 300.556 444.931 303.374 441.893 307.505Z" fill="#D8F1BC"/>
<path d="M350.591 441.327C350.591 441.327 312.637 515.727 244.212 532.607C244.212 532.607 241.598 547.325 230.023 553.645C223.839 557.01 198.896 594.408 176.977 628.524L55.7109 554.151C63.1815 546.764 71.6918 538.256 80.3938 529.378C105.706 503.58 132.701 474.594 140.979 460.354C148.367 447.633 157.712 425.555 165.853 404.804C176.279 378.267 184.762 353.891 184.762 353.891L225.207 308.942L288.802 238.262L291.552 247.304L350.591 441.327Z" fill="white"/>
<path opacity="0.4" d="M288.801 238.262L350.59 441.327C350.59 441.327 312.635 515.727 244.21 532.607C244.21 532.607 241.597 547.325 230.021 553.645C224.48 556.668 203.806 587.104 183.789 617.977C191.205 592.534 212.686 551.976 212.686 551.976C198.908 535.657 202.917 518.463 208.431 523.36C213.767 528.12 227.805 542.004 228.694 542.88C222.606 535.712 221.196 524.481 221.196 524.481C221.196 524.481 238.272 535.835 239.654 517.587C241.036 499.353 229.419 454.937 229.419 454.937L198.99 338.078L288.801 238.262Z" fill="#D8F1BC"/>
<path d="M351.281 241.217L405.176 215.774C405.176 215.774 440.065 198.73 447.741 201.671C455.417 204.612 462.751 222.258 433.43 239.152C404.122 256.045 412.838 287.52 412.838 287.52H433.772C433.772 287.52 446.332 292.636 451.217 299.202C456.101 305.768 459.59 328.215 462.381 335.835C465.172 343.454 463.777 351.046 456.101 353.535C456.101 353.535 451.217 374.82 452.612 384.258C454.008 393.697 453.31 399.77 444.239 400.919C435.167 402.068 426.096 394.367 426.794 384.258L419.816 409.537L424.7 419.249C424.7 419.249 433.772 422.286 443.541 430.657C453.31 439.029 463.079 441.313 460.288 450.642C457.497 459.971 451.914 470.025 422.607 458.371C393.299 446.716 368.877 400.919 368.877 400.919" stroke="#4E7524" stroke-miterlimit="10" stroke-linecap="round" stroke-linejoin="round"/>
<path d="M456.114 353.522C445.648 356.353 433.429 354.26 428.9 335.766C424.358 317.272 433.443 297.533 439.367 295.646" stroke="#4E7524" stroke-miterlimit="10" stroke-linecap="round" stroke-linejoin="round"/>
<path d="M426.802 384.244C426.802 384.244 426.105 360.429 434.834 354.561" stroke="#4E7524" stroke-miterlimit="10" stroke-linecap="round" stroke-linejoin="round"/>
<path opacity="0.4" d="M172.269 502.527C172.269 502.527 146.697 499.339 140.991 487.904C136.271 478.438 110.685 513.839 80.4062 529.378C105.718 503.58 132.714 474.594 140.991 460.354C148.38 447.633 157.725 425.555 165.866 404.804C165.866 404.818 165.866 404.818 165.866 404.831C165.455 422.039 156.274 448.385 158.901 462.105C158.901 462.105 149.05 464.54 151.034 475.429C152.991 486.317 172.269 502.527 172.269 502.527Z" fill="#D8F1BC"/>
<path d="M350.591 441.327C350.591 441.327 312.636 515.741 244.211 532.607C244.211 532.607 241.598 547.325 230.023 553.645C223.838 557.01 198.896 594.395 176.977 628.524" stroke="#4E7524" stroke-miterlimit="10" stroke-linecap="round" stroke-linejoin="round"/>
<path d="M55.7266 554.151C84.9519 525.275 129.871 479.491 140.994 460.354C157.824 431.382 184.778 353.877 184.778 353.877L288.818 238.262" stroke="#4E7524" stroke-miterlimit="10" stroke-linecap="round" stroke-linejoin="round"/>
<path d="M229.43 326.56C229.43 326.56 245.411 340.869 249.898 353.891" stroke="#4E7524" stroke-miterlimit="10" stroke-linecap="round" stroke-linejoin="round"/>
<path d="M418.058 502.527H246.099C241.009 502.527 236.891 498.409 236.891 493.321V127.367C236.891 122.278 241.009 118.161 246.099 118.161H418.058C423.147 118.161 427.266 122.278 427.266 127.367V493.334C427.266 498.409 423.147 502.527 418.058 502.527Z" fill="#212121"/>
<path d="M369.832 128.625L366.193 135.301C365.399 136.764 363.867 137.667 362.197 137.667H301.968C300.299 137.667 298.766 136.751 297.973 135.301L294.333 128.625C293.54 127.162 292.007 126.259 290.338 126.259H248.293C245.775 126.259 243.75 128.297 243.75 130.8V490.64C243.75 493.156 245.789 495.181 248.293 495.181H415.846C418.363 495.181 420.388 493.143 420.388 490.64V130.8C420.388 128.283 418.349 126.259 415.846 126.259H373.8C372.158 126.245 370.626 127.162 369.832 128.625Z" fill="#D8F1BC" stroke="#212121" stroke-miterlimit="10" stroke-linecap="round" stroke-linejoin="round"/>
<path d="M319.012 131.854C320.364 131.854 321.461 130.757 321.461 129.405C321.461 128.053 320.364 126.957 319.012 126.957C317.659 126.957 316.562 128.053 316.562 129.405C316.562 130.757 317.659 131.854 319.012 131.854Z" stroke="white" stroke-miterlimit="10"/>
<path d="M347.561 129.405C347.561 130.24 346.877 130.923 346.042 130.923C345.208 130.923 344.523 130.24 344.523 129.405C344.523 128.571 345.208 127.887 346.042 127.887C346.89 127.887 347.561 128.557 347.561 129.405Z" stroke="white" stroke-miterlimit="10"/>
<path d="M340.752 128.448H325.88C325.346 128.448 324.922 128.872 324.922 129.405C324.922 129.925 325.346 130.363 325.88 130.363H340.752C341.286 130.363 341.71 129.939 341.71 129.405C341.696 128.872 341.272 128.448 340.752 128.448Z" fill="white"/>
<path d="M274.909 135.396H258.859V142.209H274.909V135.396Z" stroke="#212121" stroke-miterlimit="10" stroke-linecap="round" stroke-linejoin="round"/>
<path d="M277.381 136.545H274.891V141.073H277.381V136.545Z" stroke="#212121" stroke-miterlimit="10" stroke-linecap="round" stroke-linejoin="round"/>
<path d="M388.635 139.746H385.789V142.222H388.635V139.746Z" stroke="#212121" stroke-miterlimit="10" stroke-linecap="round" stroke-linejoin="round"/>
<path d="M394.19 137.257H391.344V142.222H394.19V137.257Z" stroke="#212121" stroke-miterlimit="10" stroke-linecap="round" stroke-linejoin="round"/>
<path d="M399.744 134.767H396.898V142.209H399.744V134.767Z" stroke="#212121" stroke-miterlimit="10" stroke-linecap="round" stroke-linejoin="round"/>
<path d="M405.283 132.291H402.438V142.222H405.283V132.291Z" stroke="#212121" stroke-miterlimit="10" stroke-linecap="round" stroke-linejoin="round"/>
<path opacity="0.5" d="M419.265 205.775H244.898V372.043H419.265V205.775Z" fill="white"/>
<path d="M293.059 179.21V182.11C293.059 185.667 291.335 187.609 287.846 187.609H286.19V195.981H282.688V173.698H287.846C291.348 173.698 293.059 175.64 293.059 179.21ZM286.19 176.885V184.422H287.846C288.954 184.422 289.57 183.916 289.57 182.329V178.991C289.57 177.405 288.968 176.898 287.846 176.898H286.19V176.885Z" fill="#212121"/>
<path d="M305.603 195.967H302.073L301.471 191.932H297.175L296.559 195.967H293.344L296.901 173.698H302.032L305.603 195.967ZM297.613 188.909H300.978L299.323 177.651H299.255L297.613 188.909Z" fill="#212121"/>
<path d="M308.943 188.594L304.523 173.711H308.177L310.817 183.861H310.886L313.526 173.711H316.865L312.445 188.594V195.981H308.943V188.594Z" fill="#212121"/>
<path d="M325.65 189.51H325.719L328.072 173.698H332.943V195.967H329.632V180.004H329.563L327.21 195.967H323.899L321.354 180.222H321.286V195.967H318.234V173.698H323.105L325.65 189.51Z" fill="#212121"/>
<path d="M338.987 183.095H343.79V186.282H338.987V192.807H345.035V195.994H335.484V173.698H345.035V176.885H338.987V183.095Z" fill="#212121"/>
<path d="M350.387 179.839H350.319V195.967H347.172V173.698H351.564L355.094 187.021H355.162V173.698H358.282V195.967H354.683L350.387 179.839Z" fill="#212121"/>
<path d="M359.773 173.698H370.596V176.885H366.943V195.967H363.44V176.885H359.787V173.698H359.773Z" fill="#212121"/>
<path d="M376.834 173.451C380.241 173.451 381.992 175.49 381.992 179.046V179.744H378.681V178.827C378.681 177.24 378.052 176.639 376.93 176.639C375.822 176.639 375.178 177.24 375.178 178.827C375.178 180.455 375.876 181.659 378.175 183.656C381.103 186.228 382.02 188.074 382.02 190.619C382.02 194.175 380.241 196.213 376.807 196.213C373.372 196.213 371.594 194.175 371.594 190.619V189.251H374.905V190.837C374.905 192.424 375.603 192.999 376.725 192.999C377.833 192.999 378.544 192.424 378.544 190.837C378.544 189.21 377.847 188.006 375.548 186.009C372.62 183.437 371.703 181.59 371.703 179.046C371.676 175.49 373.427 173.451 376.834 173.451Z" fill="#212121"/>
<path d="M405.287 225.91H258.859V247.783H405.287V225.91Z" fill="white" stroke="#212121" stroke-miterlimit="10" stroke-linecap="round" stroke-linejoin="round"/>
<path d="M405.287 266.933H258.859V288.806H405.287V266.933Z" fill="white" stroke="#212121" stroke-miterlimit="10" stroke-linecap="round" stroke-linejoin="round"/>
<path d="M405.287 304.236H258.859V326.109H405.287V304.236Z" fill="white" stroke="#212121" stroke-miterlimit="10" stroke-linecap="round" stroke-linejoin="round"/>
<path d="M328.187 334.083H258.859V359.691H328.187V334.083Z" fill="white" stroke="#212121" stroke-miterlimit="10" stroke-linecap="round" stroke-linejoin="round"/>
<path d="M405.297 334.083H335.969V359.691H405.297V334.083Z" fill="white" stroke="#212121" stroke-miterlimit="10" stroke-linecap="round" stroke-linejoin="round"/>
<path d="M267.982 222.094V222.682H263.398V216.212H267.831V216.8H264.083V219.098H267.435V219.686H264.083V222.094H267.982Z" fill="#212121"/>
<path d="M277.477 219.864V222.682H276.82V219.933C276.82 218.907 276.3 218.373 275.424 218.373C274.426 218.373 273.796 219.016 273.796 220.124V222.682H273.14V219.933C273.14 218.907 272.62 218.373 271.73 218.373C270.745 218.373 270.102 219.016 270.102 220.124V222.682H269.445V217.812H270.075V218.701C270.417 218.113 271.046 217.771 271.853 217.771C272.661 217.771 273.29 218.113 273.577 218.797C273.933 218.168 274.617 217.771 275.507 217.771C276.697 217.785 277.477 218.469 277.477 219.864Z" fill="#212121"/>
<path d="M282.937 219.673V222.682H282.307V221.93C282.006 222.422 281.432 222.737 280.638 222.737C279.543 222.737 278.859 222.162 278.859 221.328C278.859 220.575 279.338 219.946 280.734 219.946H282.28V219.645C282.28 218.811 281.815 218.359 280.898 218.359C280.269 218.359 279.68 218.578 279.284 218.934L278.983 218.441C279.475 218.031 280.2 217.785 280.966 217.785C282.225 217.785 282.937 218.414 282.937 219.673ZM282.28 221.232V220.439H280.748C279.803 220.439 279.502 220.808 279.502 221.314C279.502 221.875 279.954 222.231 280.734 222.231C281.473 222.217 282.02 221.861 282.28 221.232Z" fill="#212121"/>
<path d="M284.57 216.294C284.57 216.048 284.789 215.829 285.049 215.829C285.323 215.829 285.528 216.034 285.528 216.28C285.528 216.554 285.323 216.759 285.049 216.759C284.789 216.759 284.57 216.554 284.57 216.294ZM284.721 217.826H285.378V222.696H284.721V217.826Z" fill="#212121"/>
<path d="M287.203 215.829H287.86V222.696H287.203V215.829Z" fill="#212121"/>
<path d="M272.521 238.892V239.48H267.938V233.01H272.371V233.598H268.622V235.896H271.974V236.484H268.622V238.892H272.521Z" fill="#212121"/>
<path d="M282.016 236.662V239.48H281.359V236.73C281.359 235.704 280.839 235.171 279.964 235.171C278.965 235.171 278.335 235.814 278.335 236.922V239.48H277.679V236.73C277.679 235.704 277.159 235.171 276.269 235.171C275.284 235.171 274.641 235.814 274.641 236.922V239.48H273.984V234.61H274.614V235.499C274.956 234.911 275.585 234.569 276.392 234.569C277.2 234.569 277.829 234.911 278.116 235.595C278.472 234.966 279.156 234.569 280.046 234.569C281.236 234.583 282.016 235.267 282.016 236.662Z" fill="#212121"/>
<path d="M287.46 236.47V239.48H286.831V238.727C286.53 239.22 285.955 239.535 285.162 239.535C284.067 239.535 283.383 238.96 283.383 238.126C283.383 237.373 283.862 236.744 285.257 236.744H286.803V236.443C286.803 235.609 286.338 235.157 285.421 235.157C284.792 235.157 284.204 235.376 283.807 235.732L283.506 235.239C283.999 234.829 284.724 234.583 285.49 234.583C286.749 234.583 287.46 235.212 287.46 236.47ZM286.817 238.016V237.223H285.285C284.341 237.223 284.04 237.592 284.04 238.098C284.04 238.659 284.491 239.015 285.271 239.015C286.01 239.015 286.557 238.659 286.817 238.016Z" fill="#212121"/>
<path d="M289.109 233.078C289.109 232.832 289.328 232.613 289.588 232.613C289.862 232.613 290.067 232.818 290.067 233.064C290.067 233.338 289.862 233.543 289.588 233.543C289.315 233.557 289.109 233.338 289.109 233.078ZM289.26 234.624H289.917V239.494H289.26V234.624Z" fill="#212121"/>
<path d="M291.742 232.627H292.399V239.494H291.742V232.627Z" fill="#212121"/>
<path d="M298.693 236.662V239.48H298.036V236.73C298.036 235.704 297.502 235.171 296.572 235.171C295.532 235.171 294.876 235.814 294.876 236.922V239.48H294.219V234.61H294.848V235.513C295.204 234.925 295.861 234.583 296.695 234.583C297.886 234.583 298.693 235.267 298.693 236.662Z" fill="#212121"/>
<path d="M304.148 236.47V239.48H303.518V238.727C303.217 239.22 302.643 239.535 301.849 239.535C300.754 239.535 300.07 238.96 300.07 238.126C300.07 237.373 300.549 236.744 301.945 236.744H303.491V236.443C303.491 235.609 303.026 235.157 302.109 235.157C301.48 235.157 300.891 235.376 300.494 235.732L300.193 235.239C300.686 234.829 301.411 234.583 302.177 234.583C303.436 234.583 304.148 235.212 304.148 236.47ZM303.491 238.016V237.223H301.958C301.014 237.223 300.713 237.592 300.713 238.098C300.713 238.659 301.165 239.015 301.945 239.015C302.684 239.015 303.231 238.659 303.491 238.016Z" fill="#212121"/>
<path d="M313.969 236.662V239.48H313.312V236.73C313.312 235.704 312.792 235.171 311.917 235.171C310.918 235.171 310.288 235.814 310.288 236.922V239.48H309.632V236.73C309.632 235.704 309.112 235.171 308.222 235.171C307.237 235.171 306.594 235.814 306.594 236.922V239.48H305.938V234.61H306.567V235.499C306.909 234.911 307.538 234.569 308.346 234.569C309.153 234.569 309.782 234.911 310.07 235.595C310.425 234.966 311.109 234.569 311.999 234.569C313.189 234.583 313.969 235.267 313.969 236.662Z" fill="#212121"/>
<path d="M320.002 237.25H315.938C316.006 238.262 316.786 238.946 317.854 238.946C318.442 238.946 318.975 238.727 319.345 238.303L319.714 238.727C319.276 239.247 318.606 239.521 317.84 239.521C316.321 239.521 315.281 238.481 315.281 237.045C315.281 235.609 316.294 234.583 317.662 234.583C319.03 234.583 320.015 235.595 320.015 237.045C320.015 237.1 320.002 237.182 320.002 237.25ZM315.938 236.758H319.386C319.304 235.8 318.606 235.144 317.662 235.144C316.718 235.144 316.02 235.814 315.938 236.758Z" fill="#212121"/>
<path d="M329.522 237.031C329.522 238.605 328.934 239.535 327.99 239.535C327.388 239.535 326.977 239.165 326.95 238.522C326.58 239.165 325.91 239.535 325.103 239.535C323.789 239.535 322.804 238.536 322.804 237.141C322.804 235.759 323.789 234.761 325.103 234.761C325.896 234.761 326.553 235.116 326.936 235.732V234.802H327.538V238.304C327.538 238.823 327.798 239.001 328.113 239.001C328.688 239.001 329.057 238.29 329.057 237.045C329.057 234.87 327.497 233.434 325.253 233.434C322.982 233.434 321.436 234.952 321.436 237.141C321.436 239.329 322.968 240.862 325.212 240.862C325.773 240.862 326.457 240.738 326.991 240.451L327.141 240.903C326.58 241.19 325.828 241.327 325.212 241.327C322.667 241.327 320.93 239.576 320.93 237.127C320.93 234.665 322.695 232.941 325.253 232.941C327.743 232.955 329.522 234.61 329.522 237.031ZM326.923 237.127C326.923 236.005 326.17 235.281 325.171 235.281C324.145 235.281 323.406 236.005 323.406 237.127C323.406 238.235 324.145 238.988 325.171 238.988C326.17 238.988 326.923 238.263 326.923 237.127Z" fill="#212121"/>
<path d="M335.134 237.25H331.071C331.139 238.262 331.919 238.946 332.986 238.946C333.575 238.946 334.108 238.727 334.478 238.303L334.847 238.727C334.409 239.247 333.739 239.521 332.973 239.521C331.454 239.521 330.414 238.481 330.414 237.045C330.414 235.609 331.427 234.583 332.795 234.583C334.163 234.583 335.148 235.595 335.148 237.045C335.148 237.1 335.134 237.182 335.134 237.25ZM331.071 236.758H334.519C334.437 235.8 333.739 235.144 332.795 235.144C331.851 235.144 331.153 235.814 331.071 236.758Z" fill="#212121"/>
<path d="M344.516 236.662V239.48H343.859V236.73C343.859 235.704 343.339 235.171 342.464 235.171C341.465 235.171 340.835 235.814 340.835 236.922V239.48H340.179V236.73C340.179 235.704 339.659 235.171 338.769 235.171C337.784 235.171 337.141 235.814 337.141 236.922V239.48H336.484V234.61H337.114V235.499C337.456 234.911 338.085 234.569 338.892 234.569C339.7 234.569 340.329 234.911 340.616 235.595C340.972 234.966 341.656 234.569 342.546 234.569C343.736 234.583 344.516 235.267 344.516 236.662Z" fill="#212121"/>
<path d="M349.96 236.47V239.48H349.331V238.727C349.03 239.22 348.469 239.535 347.662 239.535C346.567 239.535 345.883 238.96 345.883 238.126C345.883 237.373 346.362 236.744 347.757 236.744H349.303V236.443C349.303 235.609 348.824 235.157 347.921 235.157C347.292 235.157 346.704 235.376 346.307 235.732L346.006 235.239C346.499 234.829 347.224 234.583 347.99 234.583C349.249 234.583 349.96 235.212 349.96 236.47ZM349.303 238.016V237.223H347.771C346.827 237.223 346.526 237.592 346.526 238.098C346.526 238.659 346.977 239.015 347.757 239.015C348.496 239.015 349.043 238.659 349.303 238.016Z" fill="#212121"/>
<path d="M351.602 233.078C351.602 232.832 351.82 232.613 352.08 232.613C352.354 232.613 352.559 232.818 352.559 233.064C352.559 233.338 352.354 233.543 352.08 233.543C351.807 233.557 351.602 233.338 351.602 233.078ZM351.738 234.624H352.395V239.494H351.738V234.624Z" fill="#212121"/>
<path d="M354.234 232.627H354.891V239.494H354.234V232.627Z" fill="#212121"/>
<path d="M356.297 239.015C356.297 238.727 356.516 238.509 356.789 238.509C357.063 238.509 357.296 238.727 357.296 239.015C357.296 239.302 357.063 239.521 356.789 239.521C356.516 239.534 356.297 239.302 356.297 239.015Z" fill="#212121"/>
<path d="M358.047 237.045C358.047 235.595 359.1 234.583 360.551 234.583C361.372 234.583 362.069 234.911 362.453 235.54L361.96 235.869C361.632 235.376 361.112 235.144 360.551 235.144C359.484 235.144 358.704 235.896 358.704 237.045C358.704 238.194 359.484 238.946 360.551 238.946C361.112 238.946 361.632 238.727 361.96 238.235L362.453 238.563C362.069 239.193 361.372 239.521 360.551 239.521C359.1 239.535 358.047 238.509 358.047 237.045Z" fill="#212121"/>
<path d="M363.18 237.045C363.18 235.609 364.233 234.583 365.656 234.583C367.079 234.583 368.133 235.609 368.133 237.045C368.133 238.481 367.093 239.521 365.656 239.521C364.22 239.521 363.18 238.495 363.18 237.045ZM367.462 237.045C367.462 235.91 366.696 235.144 365.656 235.144C364.616 235.144 363.85 235.896 363.85 237.045C363.85 238.18 364.63 238.946 365.656 238.946C366.682 238.946 367.462 238.194 367.462 237.045Z" fill="#212121"/>
<path d="M377.485 236.662V239.48H376.828V236.73C376.828 235.704 376.308 235.171 375.432 235.171C374.433 235.171 373.804 235.814 373.804 236.922V239.48H373.147V236.73C373.147 235.704 372.627 235.171 371.738 235.171C370.753 235.171 370.11 235.814 370.11 236.922V239.48H369.453V234.61H370.083V235.499C370.425 234.911 371.054 234.569 371.861 234.569C372.668 234.569 373.298 234.911 373.585 235.595C373.941 234.966 374.625 234.569 375.514 234.569C376.705 234.583 377.485 235.267 377.485 236.662Z" fill="#212121"/>
<path d="M269.097 277.986L270.247 278.629L270.028 279.012L268.865 278.342V279.655H268.44L268.454 278.342L267.305 279.012L267.086 278.629L268.235 277.986L267.086 277.343L267.305 276.947L268.454 277.631L268.44 276.317H268.865V277.631L270.028 276.947L270.247 277.343L269.097 277.986Z" fill="#212121"/>
<path d="M272.863 277.986L274.012 278.629L273.793 279.012L272.63 278.342V279.655H272.206L272.22 278.342L271.07 279.012L270.852 278.629L272.001 277.986L270.852 277.343L271.07 276.947L272.22 277.631L272.206 276.317H272.63V277.631L273.793 276.947L274.012 277.343L272.863 277.986Z" fill="#212121"/>
<path d="M276.605 277.986L277.754 278.629L277.535 279.012L276.372 278.342V279.655H275.948L275.962 278.342L274.813 279.012L274.594 278.629L275.743 277.986L274.594 277.343L274.813 276.947L275.962 277.631L275.948 276.317H276.372V277.631L277.535 276.947L277.754 277.343L276.605 277.986Z" fill="#212121"/>
<path d="M280.355 277.986L281.504 278.629L281.285 279.012L280.122 278.342V279.655H279.698L279.712 278.342L278.563 279.012L278.344 278.629L279.493 277.986L278.344 277.343L278.563 276.947L279.712 277.631L279.698 276.317H280.136V277.631L281.299 276.947L281.518 277.343L280.355 277.986Z" fill="#212121"/>
<path d="M284.121 277.986L285.27 278.629L285.051 279.012L283.888 278.342V279.655H283.464L283.478 278.342L282.328 279.012L282.109 278.629L283.259 277.986L282.109 277.343L282.328 276.947L283.478 277.631L283.464 276.317H283.888V277.631L285.051 276.947L285.27 277.343L284.121 277.986Z" fill="#212121"/>
<path d="M287.871 277.986L289.02 278.629L288.801 279.012L287.638 278.342V279.655H287.214L287.228 278.342L286.078 279.012L285.859 278.629L287.009 277.986L285.859 277.343L286.078 276.947L287.228 277.631L287.214 276.317H287.638V277.631L288.801 276.947L289.02 277.343L287.871 277.986Z" fill="#212121"/>
<path d="M291.621 277.986L292.77 278.629L292.551 279.012L291.388 278.342V279.655H290.964L290.978 278.342L289.828 279.012L289.609 278.629L290.759 277.986L289.609 277.343L289.828 276.947L290.978 277.631L290.964 276.317H291.388V277.631L292.551 276.947L292.77 277.343L291.621 277.986Z" fill="#212121"/>
<path d="M295.378 277.986L296.528 278.629L296.309 279.012L295.146 278.342V279.655H294.722L294.735 278.342L293.586 279.012L293.367 278.629L294.516 277.986L293.367 277.343L293.586 276.947L294.735 277.631L294.722 276.317H295.146V277.631L296.309 276.947L296.528 277.343L295.378 277.986Z" fill="#212121"/>
<path d="M299.128 277.986L300.278 278.629L300.059 279.012L298.896 278.342V279.655H298.472L298.485 278.342L297.336 279.012L297.117 278.629L298.266 277.986L297.117 277.343L297.336 276.947L298.485 277.631L298.472 276.317H298.896V277.631L300.059 276.947L300.278 277.343L299.128 277.986Z" fill="#212121"/>
<path d="M302.878 277.986L304.028 278.629L303.809 279.012L302.646 278.342V279.655H302.222L302.235 278.342L301.086 279.012L300.867 278.629L302.017 277.986L300.867 277.343L301.086 276.947L302.235 277.631L302.222 276.317H302.646V277.631L303.809 276.947L304.028 277.343L302.878 277.986Z" fill="#212121"/>
<path d="M306.636 277.986L307.786 278.629L307.567 279.012L306.404 278.342V279.655H305.98L305.993 278.342L304.844 279.012L304.625 278.629L305.774 277.986L304.625 277.343L304.844 276.947L305.993 277.631L305.98 276.317H306.404V277.631L307.567 276.947L307.786 277.343L306.636 277.986Z" fill="#212121"/>
<path d="M268.476 259.465C268.476 260.846 267.478 261.681 265.836 261.681H264.098V263.719H263.414V257.249H265.836C267.478 257.249 268.476 258.083 268.476 259.465ZM267.792 259.465C267.792 258.425 267.108 257.837 265.808 257.837H264.085V261.079H265.808C267.108 261.079 267.792 260.491 267.792 259.465Z" fill="#212121"/>
<path d="M273.444 260.71V263.719H272.815V262.967C272.514 263.459 271.939 263.774 271.146 263.774C270.051 263.774 269.367 263.199 269.367 262.365C269.367 261.613 269.846 260.983 271.242 260.983H272.788V260.682C272.788 259.848 272.323 259.397 271.406 259.397C270.776 259.397 270.188 259.615 269.791 259.971L269.49 259.479C269.983 259.068 270.708 258.822 271.474 258.822C272.733 258.822 273.444 259.451 273.444 260.71ZM272.788 262.255V261.462H271.255C270.311 261.462 270.01 261.831 270.01 262.338C270.01 262.898 270.462 263.254 271.242 263.254C271.98 263.254 272.528 262.898 272.788 262.255Z" fill="#212121"/>
<path d="M274.555 263.172L274.856 262.652C275.239 262.953 275.896 263.199 276.58 263.199C277.51 263.199 277.879 262.885 277.879 262.406C277.879 261.134 274.719 262.132 274.719 260.217C274.719 259.424 275.403 258.836 276.648 258.836C277.277 258.836 277.962 259.014 278.372 259.287L278.085 259.821C277.661 259.52 277.154 259.41 276.648 259.41C275.772 259.41 275.376 259.752 275.376 260.217C275.376 261.53 278.536 260.546 278.536 262.406C278.536 263.24 277.797 263.787 276.525 263.787C275.731 263.774 274.951 263.514 274.555 263.172Z" fill="#212121"/>
<path d="M279.062 263.172L279.364 262.652C279.747 262.953 280.403 263.199 281.087 263.199C282.018 263.199 282.387 262.885 282.387 262.406C282.387 261.134 279.227 262.132 279.227 260.217C279.227 259.424 279.911 258.836 281.156 258.836C281.785 258.836 282.469 259.014 282.88 259.287L282.593 259.821C282.168 259.52 281.662 259.41 281.156 259.41C280.28 259.41 279.883 259.752 279.883 260.217C279.883 261.53 283.044 260.546 283.044 262.406C283.044 263.24 282.305 263.787 281.033 263.787C280.239 263.774 279.459 263.514 279.062 263.172Z" fill="#212121"/>
<path d="M291.313 258.863L289.466 263.733H288.85L287.317 259.752L285.785 263.733H285.169L283.336 258.863H283.965L285.498 262.994L287.058 258.863H287.618L289.178 262.994L290.724 258.863H291.313Z" fill="#212121"/>
<path d="M291.672 261.284C291.672 259.848 292.725 258.822 294.148 258.822C295.571 258.822 296.611 259.848 296.611 261.284C296.611 262.721 295.571 263.76 294.148 263.76C292.725 263.76 291.672 262.734 291.672 261.284ZM295.954 261.284C295.954 260.149 295.188 259.383 294.148 259.383C293.109 259.383 292.342 260.135 292.342 261.284C292.342 262.42 293.122 263.186 294.148 263.186C295.188 263.186 295.954 262.433 295.954 261.284Z" fill="#212121"/>
<path d="M300.41 258.822V259.465C300.355 259.465 300.301 259.451 300.26 259.451C299.247 259.451 298.618 260.094 298.618 261.243V263.719H297.961V258.849H298.59V259.807C298.891 259.164 299.507 258.822 300.41 258.822Z" fill="#212121"/>
<path d="M305.98 256.866V263.733H305.351V262.775C304.954 263.432 304.284 263.788 303.476 263.788C302.095 263.788 301.055 262.775 301.055 261.312C301.055 259.848 302.095 258.849 303.476 258.849C304.256 258.849 304.913 259.178 305.324 259.807V256.88H305.98V256.866ZM305.337 261.284C305.337 260.149 304.557 259.383 303.531 259.383C302.491 259.383 301.725 260.135 301.725 261.284C301.725 262.42 302.505 263.186 303.531 263.186C304.557 263.186 305.337 262.433 305.337 261.284Z" fill="#212121"/>
<path d="M315.711 312.772V319.242H315.04V313.36H313.508V312.772H315.711Z" fill="#212121"/>
<path d="M321.681 318.64V319.228H317.139V318.763L319.834 316.123C320.559 315.398 320.71 314.974 320.71 314.523C320.71 313.771 320.176 313.305 319.191 313.305C318.439 313.305 317.85 313.538 317.426 314.03L316.961 313.62C317.467 313.032 318.261 312.69 319.26 312.69C320.573 312.69 321.408 313.36 321.408 314.441C321.408 315.056 321.216 315.617 320.34 316.465L318.138 318.627H321.681V318.64Z" fill="#212121"/>
<path d="M326.797 317.382C326.797 318.462 326.017 319.297 324.443 319.297C323.513 319.297 322.61 318.969 322.117 318.462L322.446 317.929C322.856 318.367 323.609 318.681 324.457 318.681C325.524 318.681 326.126 318.189 326.126 317.382C326.126 316.602 325.579 316.096 324.375 316.096H323.91V315.604L325.702 313.36H322.391V312.772H326.55V313.237L324.717 315.535C326.099 315.617 326.797 316.342 326.797 317.382Z" fill="#212121"/>
<path d="M333.225 317.532H331.925V319.228H331.255V317.532H327.602V317.053L331.036 312.758H331.775L328.464 316.944H331.282V315.439H331.925V316.944H333.225V317.532Z" fill="#212121"/>
<path d="M340.656 317.327C340.656 318.421 339.89 319.283 338.303 319.283C337.372 319.283 336.483 318.955 335.977 318.449L336.305 317.915C336.715 318.353 337.468 318.668 338.289 318.668C339.383 318.668 339.972 318.134 339.972 317.341C339.972 316.506 339.452 315.987 337.81 315.987H336.428L336.756 312.745H340.3V313.333H337.345L337.126 315.398H337.96C339.917 315.426 340.656 316.192 340.656 317.327Z" fill="#212121"/>
<path d="M346.355 317.3C346.355 318.517 345.398 319.283 344.139 319.283C342.415 319.283 341.484 318.093 341.484 316.041C341.484 313.839 342.688 312.69 344.44 312.69C345.028 312.69 345.575 312.786 345.972 313.046L345.699 313.579C345.37 313.36 344.919 313.278 344.44 313.278C343.044 313.278 342.141 314.181 342.141 315.932C342.141 316.082 342.155 316.26 342.168 316.465C342.497 315.754 343.249 315.357 344.152 315.357C345.452 315.357 346.355 316.123 346.355 317.3ZM345.699 317.327C345.699 316.479 345.069 315.932 344.07 315.932C343.085 315.932 342.401 316.547 342.401 317.341C342.401 318.052 342.989 318.722 344.111 318.722C345.042 318.736 345.699 318.189 345.699 317.327Z" fill="#212121"/>
<path d="M351.607 312.772V313.237L348.898 319.242H348.173L350.841 313.36H347.516V314.578H346.859V312.772H351.607Z" fill="#212121"/>
<path d="M357.287 317.437C357.287 318.586 356.316 319.297 354.769 319.297C353.21 319.297 352.266 318.586 352.266 317.437C352.266 316.657 352.703 316.11 353.511 315.85C352.854 315.59 352.498 315.097 352.498 314.427C352.498 313.374 353.388 312.717 354.769 312.717C356.138 312.717 357.054 313.374 357.054 314.427C357.054 315.097 356.685 315.59 356.015 315.85C356.836 316.11 357.287 316.671 357.287 317.437ZM356.603 317.423C356.603 316.629 355.919 316.123 354.769 316.123C353.62 316.123 352.95 316.629 352.95 317.423C352.95 318.23 353.62 318.722 354.769 318.722C355.919 318.736 356.603 318.23 356.603 317.423ZM354.769 315.604C355.782 315.604 356.384 315.152 356.384 314.455C356.384 313.73 355.741 313.278 354.769 313.278C353.784 313.278 353.169 313.716 353.169 314.441C353.169 315.152 353.757 315.604 354.769 315.604Z" fill="#212121"/>
<path d="M365.312 315.946C365.312 318.148 364.108 319.297 362.357 319.297C361.769 319.297 361.235 319.201 360.824 318.941L361.098 318.408C361.426 318.627 361.878 318.709 362.357 318.709C363.752 318.709 364.656 317.806 364.656 316.055C364.656 315.905 364.642 315.727 364.628 315.522C364.3 316.233 363.547 316.629 362.644 316.629C361.358 316.629 360.469 315.877 360.469 314.687C360.469 313.47 361.427 312.704 362.685 312.704C364.368 312.704 365.312 313.907 365.312 315.946ZM364.396 314.66C364.396 313.948 363.807 313.278 362.685 313.278C361.755 313.278 361.098 313.825 361.098 314.687C361.098 315.535 361.728 316.082 362.726 316.082C363.711 316.082 364.396 315.467 364.396 314.66Z" fill="#212121"/>
<path d="M368.047 312.772V319.242H367.376V313.36H365.844V312.772H368.047Z" fill="#212121"/>
<path d="M369.594 316C369.594 313.935 370.675 312.704 372.18 312.704C373.671 312.704 374.766 313.935 374.766 316C374.766 318.066 373.671 319.297 372.18 319.297C370.675 319.297 369.594 318.066 369.594 316ZM374.068 316C374.068 314.277 373.288 313.319 372.166 313.319C371.044 313.319 370.264 314.277 370.264 316C370.264 317.724 371.044 318.681 372.166 318.681C373.302 318.681 374.068 317.737 374.068 316Z" fill="#212121"/>
<path d="M377.484 312.772V319.242H376.814V313.36H375.281V312.772H377.484Z" fill="#212121"/>
<path d="M383.242 312.772V319.242H382.571V313.36H381.039V312.772H383.242Z" fill="#212121"/>
<path d="M386.57 312.772V319.242H385.9V313.36H384.367V312.772H386.57Z" fill="#212121"/>
<path d="M392.533 318.64V319.228H387.99V318.763L390.686 316.123C391.411 315.398 391.561 314.974 391.561 314.523C391.561 313.771 391.028 313.305 390.043 313.305C389.29 313.305 388.702 313.538 388.278 314.03L387.812 313.62C388.305 313.032 389.112 312.69 390.111 312.69C391.425 312.69 392.259 313.36 392.259 314.441C392.259 315.056 392.068 315.617 391.192 316.465L388.989 318.627H392.533V318.64Z" fill="#212121"/>
<path d="M395.164 312.772V319.242H394.493V313.36H392.961V312.772H395.164Z" fill="#212121"/>
<path d="M286.061 311.281V310.296C286.061 309.338 285.295 308.572 284.337 308.572H266.865C265.907 308.572 265.141 309.338 265.141 310.296V311.281H286.061Z" fill="#4F7625"/>
<path d="M265.141 312.635V319.885C265.141 320.842 265.907 321.608 266.865 321.608H284.337C285.295 321.608 286.061 320.842 286.061 319.885V312.635H265.141Z" fill="#4F7625"/>
<path d="M265.398 350.813C265.398 348.748 266.479 347.517 267.984 347.517C269.489 347.517 270.57 348.748 270.57 350.813C270.57 352.879 269.476 354.11 267.984 354.11C266.479 354.11 265.398 352.879 265.398 350.813ZM269.886 350.813C269.886 349.09 269.106 348.132 267.984 348.132C266.862 348.132 266.083 349.09 266.083 350.813C266.083 352.537 266.862 353.494 267.984 353.494C269.106 353.494 269.886 352.55 269.886 350.813Z" fill="#212121"/>
<path d="M276.49 352.249C276.49 353.398 275.519 354.11 273.973 354.11C272.413 354.11 271.469 353.398 271.469 352.249C271.469 351.47 271.907 350.922 272.714 350.663C272.057 350.403 271.701 349.91 271.701 349.24C271.701 348.187 272.604 347.53 273.973 347.53C275.341 347.53 276.258 348.187 276.258 349.24C276.258 349.91 275.888 350.403 275.218 350.663C276.039 350.922 276.49 351.483 276.49 352.249ZM275.806 352.236C275.806 351.442 275.122 350.936 273.973 350.936C272.823 350.936 272.153 351.429 272.153 352.236C272.153 353.043 272.823 353.535 273.973 353.535C275.122 353.549 275.806 353.043 275.806 352.236ZM273.973 350.416C274.985 350.416 275.587 349.965 275.587 349.267C275.587 348.542 274.944 348.091 273.973 348.091C272.987 348.091 272.372 348.529 272.372 349.254C272.372 349.965 272.974 350.416 273.973 350.416Z" fill="#212121"/>
<path d="M279.762 346.272H280.364L277.313 354.985H276.711L279.762 346.272Z" fill="#212121"/>
<path d="M284.931 353.467V354.055H280.389V353.59L283.084 350.95C283.809 350.225 283.96 349.787 283.96 349.35C283.96 348.597 283.426 348.132 282.441 348.132C281.689 348.132 281.1 348.365 280.676 348.857L280.211 348.447C280.717 347.859 281.511 347.517 282.51 347.517C283.823 347.517 284.658 348.187 284.658 349.268C284.658 349.883 284.466 350.444 283.59 351.292L281.388 353.453H284.931V353.467Z" fill="#212121"/>
<path d="M290.164 352.154C290.164 353.248 289.398 354.11 287.81 354.11C286.88 354.11 285.991 353.782 285.484 353.275L285.813 352.742C286.223 353.18 286.976 353.494 287.797 353.494C288.891 353.494 289.48 352.961 289.48 352.167C289.48 351.333 288.96 350.813 287.318 350.813H285.936L286.264 347.571H289.808V348.159H286.853L286.634 350.225H287.468C289.425 350.239 290.164 351.005 290.164 352.154Z" fill="#212121"/>
<path d="M268.424 343.413V343.782H265.578V339.76H268.328V340.13H266.002V341.552H268.082V341.908H266.002V343.399H268.424V343.413Z" fill="#212121"/>
<path d="M271.891 343.782L270.591 342.018L269.305 343.782H268.812L270.345 341.717L268.922 339.76H269.415L270.632 341.402L271.836 339.76H272.301L270.879 341.703L272.411 343.782H271.891Z" fill="#212121"/>
<path d="M276.155 341.142C276.155 341.99 275.539 342.51 274.513 342.51H273.432V343.782H273.008V339.76H274.513C275.525 339.76 276.155 340.28 276.155 341.142ZM275.731 341.142C275.731 340.499 275.306 340.13 274.499 340.13H273.432V342.141H274.499C275.306 342.141 275.731 341.771 275.731 341.142Z" fill="#212121"/>
<path d="M278.641 339.76H280.282C281.569 339.76 282.431 340.581 282.431 341.771C282.431 342.948 281.569 343.782 280.282 343.782H278.641V339.76ZM280.241 343.413C281.309 343.413 281.993 342.729 281.993 341.771C281.993 340.8 281.309 340.13 280.241 340.13H279.051V343.413H280.241Z" fill="#212121"/>
<path d="M285.576 341.908V343.782H285.179V343.317C285.002 343.632 284.646 343.823 284.14 343.823C283.455 343.823 283.031 343.468 283.031 342.948C283.031 342.483 283.332 342.1 284.194 342.1H285.152V341.922C285.152 341.402 284.865 341.129 284.304 341.129C283.907 341.129 283.551 341.265 283.305 341.484L283.127 341.183C283.428 340.923 283.88 340.773 284.358 340.773C285.138 340.732 285.576 341.129 285.576 341.908ZM285.166 342.879V342.387H284.222C283.633 342.387 283.442 342.62 283.442 342.921C283.442 343.276 283.729 343.495 284.208 343.495C284.673 343.481 285.001 343.262 285.166 342.879Z" fill="#212121"/>
<path d="M288.277 343.591C288.113 343.727 287.88 343.81 287.634 343.81C287.073 343.81 286.745 343.495 286.745 342.934V341.115H286.211V340.773H286.745V340.116H287.155V340.773H288.072V341.115H287.155V342.92C287.155 343.276 287.333 343.468 287.675 343.468C287.839 343.468 288.003 343.413 288.126 343.317L288.277 343.591Z" fill="#212121"/>
<path d="M291.545 342.401H289.014C289.055 343.03 289.548 343.454 290.204 343.454C290.574 343.454 290.902 343.317 291.135 343.057L291.367 343.317C291.094 343.632 290.683 343.809 290.204 343.809C289.26 343.809 288.617 343.167 288.617 342.277C288.617 341.388 289.247 340.745 290.095 340.745C290.943 340.745 291.559 341.375 291.559 342.277C291.545 342.305 291.545 342.346 291.545 342.401ZM289.014 342.086H291.162C291.107 341.498 290.683 341.087 290.095 341.087C289.507 341.087 289.069 341.498 289.014 342.086Z" fill="#212121"/>
<path d="M341.812 347.585V354.055H341.142V348.173H339.609V347.585H341.812Z" fill="#212121"/>
<path d="M347.783 353.467V354.055H343.24V353.59L345.936 350.95C346.661 350.225 346.811 349.787 346.811 349.349C346.811 348.597 346.292 348.132 345.293 348.132C344.54 348.132 343.952 348.364 343.528 348.857L343.062 348.447C343.569 347.858 344.362 347.516 345.361 347.516C346.675 347.516 347.509 348.187 347.509 349.267C347.509 349.883 347.318 350.444 346.442 351.292L344.239 353.453H347.783V353.467Z" fill="#212121"/>
<path d="M352.898 352.195C352.898 353.275 352.118 354.11 350.545 354.11C349.614 354.11 348.711 353.781 348.219 353.275L348.547 352.742C348.958 353.179 349.71 353.494 350.558 353.494C351.626 353.494 352.228 353.002 352.228 352.195C352.228 351.415 351.68 350.909 350.476 350.909H350.011V350.416L351.804 348.173H348.492V347.585H352.652V348.05L350.818 350.348C352.2 350.43 352.898 351.155 352.898 352.195Z" fill="#212121"/>
<path d="M339.836 341.771C339.836 340.595 340.739 339.733 341.943 339.733C342.531 339.733 343.051 339.924 343.407 340.321L343.133 340.595C342.805 340.266 342.408 340.116 341.943 340.116C340.972 340.116 340.246 340.827 340.246 341.785C340.246 342.742 340.972 343.454 341.943 343.454C342.408 343.454 342.805 343.317 343.133 342.975L343.407 343.248C343.051 343.645 342.518 343.837 341.929 343.837C340.725 343.809 339.836 342.947 339.836 341.771Z" fill="#212121"/>
<path d="M349.794 339.76L348.439 343.782H347.988L346.811 340.362L345.62 343.782H345.183L343.828 339.76H344.266L345.429 343.221L346.633 339.76H347.03L348.22 343.235L349.397 339.76H349.794Z" fill="#212121"/>
<path d="M305.924 388.827H302.312L301.532 390.55H300.82L303.776 384.08H304.446L307.401 390.55H306.676L305.924 388.827ZM305.664 388.266L304.104 384.792L302.544 388.266H305.664Z" fill="#212121"/>
<path d="M307.812 388.116C307.812 386.666 308.866 385.64 310.316 385.64C311.137 385.64 311.835 385.968 312.218 386.597L311.726 386.925C311.397 386.433 310.877 386.2 310.316 386.2C309.249 386.2 308.483 386.953 308.483 388.102C308.483 389.251 309.263 390.003 310.316 390.003C310.877 390.003 311.397 389.784 311.726 389.292L312.218 389.62C311.835 390.249 311.137 390.578 310.316 390.578C308.866 390.591 307.812 389.566 307.812 388.116Z" fill="#212121"/>
<path d="M316.122 390.25C315.862 390.482 315.479 390.591 315.096 390.591C314.179 390.591 313.673 390.072 313.673 389.183V386.242H312.797V385.681H313.673V384.614H314.329V385.681H315.807V386.242H314.329V389.142C314.329 389.716 314.63 390.031 315.164 390.031C315.438 390.031 315.698 389.949 315.889 389.784L316.122 390.25Z" fill="#212121"/>
<path d="M317.172 384.149C317.172 383.902 317.391 383.684 317.651 383.684C317.924 383.684 318.13 383.889 318.13 384.135C318.13 384.409 317.924 384.614 317.651 384.614C317.377 384.627 317.172 384.409 317.172 384.149ZM317.322 385.681H317.979V390.55H317.322V385.681Z" fill="#212121"/>
<path d="M319.305 388.116C319.305 386.679 320.358 385.64 321.781 385.64C323.204 385.64 324.244 386.666 324.244 388.116C324.244 389.552 323.204 390.591 321.781 390.591C320.372 390.591 319.305 389.566 319.305 388.116ZM323.587 388.116C323.587 386.98 322.821 386.214 321.781 386.214C320.741 386.214 319.975 386.967 319.975 388.116C319.975 389.251 320.755 390.017 321.781 390.017C322.821 390.017 323.587 389.251 323.587 388.116Z" fill="#212121"/>
<path d="M330.068 387.733V390.551H329.411V387.801C329.411 386.775 328.877 386.242 327.947 386.242C326.907 386.242 326.251 386.885 326.251 388.006V390.564H325.594V385.695H326.223V386.597C326.579 386.009 327.236 385.667 328.07 385.667C329.261 385.654 330.068 386.337 330.068 387.733Z" fill="#212121"/>
<path d="M335.106 384.669V387.213H338.458V387.801H335.106V390.55H334.422V384.08H338.869V384.669H335.106Z" fill="#212121"/>
<path d="M339.898 384.149C339.898 383.902 340.117 383.684 340.377 383.684C340.651 383.684 340.856 383.889 340.856 384.135C340.856 384.409 340.651 384.614 340.377 384.614C340.104 384.627 339.898 384.409 339.898 384.149ZM340.035 385.681H340.692V390.55H340.035V385.681Z" fill="#212121"/>
<path d="M347.023 385.681V389.949C347.023 391.617 346.202 392.383 344.588 392.383C343.699 392.383 342.823 392.11 342.317 391.631L342.645 391.125C343.11 391.535 343.808 391.795 344.561 391.795C345.792 391.795 346.353 391.234 346.353 390.031V389.415C345.942 390.031 345.258 390.359 344.465 390.359C343.083 390.359 342.016 389.388 342.016 387.992C342.016 386.597 343.069 385.64 344.465 385.64C345.272 385.64 345.983 385.968 346.394 386.611V385.681H347.023ZM346.394 387.992C346.394 386.939 345.614 386.214 344.547 386.214C343.48 386.214 342.7 386.939 342.7 387.992C342.7 389.046 343.466 389.771 344.547 389.771C345.614 389.784 346.394 389.046 346.394 387.992Z" fill="#212121"/>
<path d="M353.253 385.681V390.55H352.624V389.661C352.282 390.249 351.653 390.591 350.873 390.591C349.628 390.591 348.82 389.894 348.82 388.499V385.681H349.477V388.43C349.477 389.47 350.011 389.99 350.941 389.99C351.954 389.99 352.597 389.333 352.597 388.225V385.667H353.253V385.681Z" fill="#212121"/>
<path d="M357.549 385.653V386.296C357.494 386.296 357.439 386.283 357.385 386.283C356.372 386.283 355.743 386.925 355.743 388.075V390.55H355.086V385.681H355.715V386.638C356.03 385.995 356.646 385.653 357.549 385.653Z" fill="#212121"/>
<path d="M362.908 388.321H358.844C358.913 389.333 359.693 390.017 360.76 390.017C361.348 390.017 361.882 389.798 362.251 389.374L362.621 389.798C362.183 390.318 361.512 390.591 360.746 390.591C359.227 390.591 358.188 389.552 358.188 388.116C358.188 386.679 359.2 385.64 360.568 385.64C361.936 385.64 362.922 386.652 362.922 388.116C362.922 388.17 362.908 388.252 362.908 388.321ZM358.844 387.828H362.292C362.21 386.871 361.512 386.214 360.568 386.214C359.624 386.214 358.926 386.884 358.844 387.828Z" fill="#212121"/>
<path d="M308.835 416.513V419.358H306.29V416.595C303.772 416.444 301.364 415.651 299.969 414.557L301.364 411.452C302.637 412.395 304.47 413.079 306.29 413.257V409.017C303.471 408.333 300.324 407.389 300.324 403.764C300.324 401.069 302.281 398.758 306.29 398.306V395.488H308.835V398.251C310.737 398.402 312.597 398.908 313.993 399.797L312.721 402.916C311.421 402.177 310.107 401.753 308.835 401.589V405.912C311.653 406.568 314.759 407.512 314.759 411.096C314.759 413.736 312.83 416.02 308.835 416.513ZM306.304 405.282V401.671C304.963 401.972 304.429 402.711 304.429 403.545C304.415 404.448 305.182 404.927 306.304 405.282ZM310.668 411.397C310.668 410.508 309.929 410.029 308.835 409.646V413.148C310.107 412.874 310.668 412.218 310.668 411.397Z" fill="#212121"/>
<path d="M329.743 412.956V416.308H316.307V413.64L323.162 407.156C324.736 405.652 325.023 404.749 325.023 403.874C325.023 402.478 324.051 401.658 322.177 401.658C320.658 401.658 319.358 402.246 318.496 403.436L315.5 401.507C316.868 399.496 319.358 398.21 322.56 398.21C326.528 398.21 329.169 400.249 329.169 403.463C329.169 405.187 328.69 406.76 326.2 409.072L322.109 412.929H329.743V412.956Z" fill="#212121"/>
<path d="M331.398 407.416C331.398 401.548 334.655 398.224 339.019 398.224C343.411 398.224 346.64 401.548 346.64 407.416C346.64 413.285 343.411 416.609 339.019 416.609C334.655 416.609 331.398 413.285 331.398 407.416ZM342.508 407.416C342.508 403.381 341.085 401.699 339.033 401.699C336.994 401.699 335.572 403.381 335.572 407.416C335.572 411.452 336.994 413.134 339.033 413.134C341.085 413.134 342.508 411.452 342.508 407.416Z" fill="#212121"/>
<path d="M348.648 407.416C348.648 401.548 351.905 398.224 356.269 398.224C360.661 398.224 363.89 401.548 363.89 407.416C363.89 413.285 360.661 416.609 356.269 416.609C351.905 416.609 348.648 413.285 348.648 407.416ZM359.745 407.416C359.745 403.381 358.322 401.699 356.269 401.699C354.231 401.699 352.808 403.381 352.808 407.416C352.808 411.452 354.231 413.134 356.269 413.134C358.322 413.134 359.745 411.452 359.745 407.416Z" fill="#212121"/>
<path d="M360.444 461.585H303.717C296.383 461.585 290.445 455.649 290.445 448.317C290.445 440.985 296.383 435.048 303.717 435.048H360.444C367.778 435.048 373.716 440.985 373.716 448.317C373.716 455.649 367.778 461.585 360.444 461.585Z" fill="#4F7625"/>
<path d="M313.876 446.894C313.876 448.549 312.672 449.562 310.688 449.562H308.594V452.024H307.773V444.227H310.701C312.672 444.227 313.876 445.225 313.876 446.894ZM313.041 446.894C313.041 445.649 312.22 444.938 310.66 444.938H308.581V448.837H310.66C312.22 448.837 313.041 448.125 313.041 446.894Z" fill="white"/>
<path d="M319.859 448.399V452.037H319.107V451.121C318.751 451.723 318.053 452.092 317.095 452.092C315.768 452.092 314.961 451.395 314.961 450.382C314.961 449.479 315.536 448.727 317.219 448.727H319.079V448.371C319.079 447.373 318.505 446.826 317.424 446.826C316.671 446.826 315.946 447.099 315.467 447.51L315.111 446.922C315.7 446.415 316.575 446.128 317.492 446.128C318.997 446.114 319.859 446.88 319.859 448.399ZM319.066 450.273V449.315H317.232C316.097 449.315 315.727 449.767 315.727 450.369C315.727 451.053 316.274 451.477 317.205 451.477C318.094 451.463 318.765 451.039 319.066 450.273Z" fill="white"/>
<path d="M326.823 446.169L323.895 452.735C323.403 453.884 322.787 454.253 321.939 454.253C321.391 454.253 320.871 454.076 320.516 453.72L320.885 453.132C321.172 453.419 321.528 453.583 321.952 453.583C322.472 453.583 322.828 453.337 323.17 452.598L323.43 452.024L320.817 446.169H321.638L323.84 451.148L326.043 446.169H326.823Z" fill="white"/>
<path d="M333.51 452.079V453.364H332.949V452.092C331.855 452.037 330.829 451.641 330.281 451.08L330.61 450.451C331.13 450.957 332.019 451.326 332.949 451.381V448.454C331.718 448.153 330.473 447.77 330.473 446.306C330.473 445.239 331.239 444.309 332.949 444.172V442.886H333.51V444.158C334.345 444.186 335.18 444.432 335.768 444.856L335.494 445.513C334.865 445.116 334.153 444.897 333.51 444.87V447.824C334.769 448.125 336.096 448.481 336.096 449.972C336.096 451.053 335.275 451.983 333.51 452.079ZM332.949 447.674V444.883C331.8 444.979 331.294 445.567 331.294 446.279C331.28 447.127 332.033 447.441 332.949 447.674ZM335.275 450.013C335.275 449.138 334.468 448.837 333.497 448.59V451.381C334.728 451.285 335.275 450.724 335.275 450.013Z" fill="white"/>
<path d="M342.524 451.312V452.024H337.051V451.449L340.294 448.276C341.169 447.414 341.347 446.88 341.347 446.347C341.347 445.444 340.718 444.883 339.514 444.883C338.597 444.883 337.899 445.157 337.379 445.759L336.805 445.266C337.407 444.555 338.378 444.145 339.569 444.145C341.156 444.145 342.154 444.952 342.154 446.251C342.154 447.003 341.922 447.674 340.868 448.7L338.214 451.312H342.524Z" fill="white"/>
<path d="M343.484 448.125C343.484 445.636 344.784 444.158 346.59 444.158C348.396 444.158 349.71 445.636 349.71 448.125C349.71 450.615 348.396 452.092 346.59 452.092C344.784 452.092 343.484 450.615 343.484 448.125ZM348.889 448.125C348.889 446.046 347.958 444.897 346.59 444.897C345.236 444.897 344.292 446.046 344.292 448.125C344.292 450.205 345.222 451.354 346.59 451.354C347.958 451.354 348.889 450.205 348.889 448.125Z" fill="white"/>
<path d="M350.859 448.125C350.859 445.636 352.159 444.158 353.965 444.158C355.771 444.158 357.085 445.636 357.085 448.125C357.085 450.615 355.771 452.092 353.965 452.092C352.173 452.092 350.859 450.615 350.859 448.125ZM356.264 448.125C356.264 446.046 355.333 444.897 353.965 444.897C352.611 444.897 351.667 446.046 351.667 448.125C351.667 450.205 352.611 451.354 353.965 451.354C355.333 451.354 356.264 450.205 356.264 448.125Z" fill="white"/>
<path d="M246.252 419.81C248.304 451.34 233.692 486.454 233.692 486.454L154.772 464.239L141.008 460.354C154.663 441.341 161.203 403.929 157.632 373.643C157.358 371.359 157.18 369.198 157.071 367.159C155.771 342.182 166.074 334.863 174.858 323.824C184.367 311.869 205.752 266.728 205.752 256.045C205.752 245.348 232.487 219.221 226.549 189.524C226.549 189.524 234.636 184.518 242.763 188.635C246.443 190.495 250.138 194.23 253.093 201.138C260.057 217.416 250.288 263.377 241.956 274.662L225.934 340.978C225.934 340.978 231.338 350.293 236.647 367.2C240.779 380.401 244.843 398.197 246.252 419.81Z" fill="white"/>
<path opacity="0.4" d="M157.055 367.173C161.516 379.402 166.277 387.623 165.867 404.831C165.456 422.039 156.275 448.385 158.902 462.105C158.902 462.105 156.823 462.611 154.757 464.239L140.992 460.354C154.647 441.341 161.187 403.929 157.616 373.643C157.342 371.359 157.178 369.211 157.055 367.173Z" fill="#D8F1BC"/>
<path opacity="0.4" d="M241.957 274.676L225.935 340.992C225.935 340.992 231.339 350.307 236.648 367.214C236.634 367.201 236.634 367.187 236.621 367.173C225.784 349.692 216.617 344.507 216.617 344.507C223.841 335.835 229.41 272.515 229.41 272.515C229.41 272.515 252.054 245.909 249.879 218.072C248.866 205.269 245.788 195.475 242.737 188.649C246.417 190.509 250.111 194.244 253.067 201.152C260.058 217.429 250.276 263.391 241.957 274.676Z" fill="#D8F1BC"/>
<path d="M140.992 460.354C154.661 441.354 161.187 403.929 157.63 373.643C154.059 343.358 165.347 335.78 174.856 323.824C184.365 311.883 205.75 266.742 205.75 256.045C205.75 245.348 232.486 219.221 226.547 189.524C226.547 189.524 243.609 178.95 253.105 201.138C260.069 217.416 250.286 263.377 241.981 274.662L225.959 340.978C225.959 340.978 243.062 370.456 246.264 419.81C248.316 451.34 233.703 486.454 233.703 486.454" stroke="#4E7524" stroke-miterlimit="10" stroke-linecap="round" stroke-linejoin="round"/>
<path d="M193.75 511.692C193.75 511.692 211.715 522.758 222.195 540.226" stroke="#4E7524" stroke-miterlimit="10" stroke-linecap="round" stroke-linejoin="round"/>
<path d="M244.213 532.607C244.213 532.607 228.738 534.809 214.755 518.08C205.793 507.355 178.579 502.513 172.312 474.499" stroke="#4E7524" stroke-miterlimit="10" stroke-linecap="round" stroke-linejoin="round"/>
<path opacity="0.2" d="M469.122 615.447C429.512 596.501 453.511 581.331 399.014 557.804C344.518 534.289 343.957 514.195 350.538 467.987C357.119 421.766 351.892 372.645 367.75 368.473C383.608 364.301 355.34 300.57 373.825 278.041L464.73 454.828L469.122 615.447Z" fill="black" fill-opacity="0.7"/>
<path d="M616.707 613.6C614.846 608.279 612.944 602.466 611.494 597.213C609.606 590.332 608.128 584.888 604.639 578.555C604.092 577.529 603.49 576.462 602.833 575.327C599.125 568.72 594.049 559.678 591.08 548.571C589.096 541.088 591.039 522.663 592.941 504.825C594.281 491.994 595.554 479.888 595.198 473.022L595.089 470.587C594.158 452.626 592.215 415.255 588.193 404.914C584.293 394.956 580.654 393.465 574.018 390.797C573.334 390.496 572.622 390.223 571.87 389.908C569.38 388.868 565.138 386.68 560.254 384.149C549.239 378.445 535.53 371.346 528.565 370.402C519.371 369.184 510.505 370.99 509.041 371.305C500.462 364.711 485.863 356.23 481.512 356.066C477.941 355.888 470.183 358.118 466.421 359.281C465.545 359.554 464.874 359.76 464.546 359.883C461.413 357.557 458.786 355.82 457.089 354.986C456.898 354.904 456.734 354.821 456.583 354.767C451.753 352.783 444.461 352.701 440.479 352.811C439.275 352.865 438.345 352.934 437.907 352.975C430.409 341.43 423.007 329.926 419.805 324.878C413.101 314.263 392.345 270.573 392.126 270.121C392.071 270.012 391.989 269.93 391.852 269.902C391.852 269.902 391.784 269.861 391.661 269.834C390.046 269.355 378.156 266.346 373.381 277.864C368.154 290.393 375.625 317.943 382.89 327.942C386.393 332.771 395.943 352.4 405.658 372.727C403.154 375.039 383.246 393.437 373.573 396.871C365.651 399.675 367.498 440.26 368.989 472.871C369.55 484.909 370.015 495.264 369.878 501.487C369.605 513.525 391.51 530.118 412.731 546.136C431.928 560.663 451.753 575.669 454.079 586.571C454.722 589.649 456.556 592.124 458.745 594.929C462.398 599.579 467.105 605.065 469.102 615.474C469.691 618.58 474.698 622.656 478.625 629.331H622.481C621.304 626.185 619.033 620.276 616.707 613.6ZM417.397 397.336C424.361 411.918 428.671 420.645 429.684 421.575C430.71 422.505 430.669 427.17 430.628 431.656C430.573 435.623 430.546 439.877 431.038 443.475C429.342 444.966 418.642 454.719 416.48 462.598L407.382 451.874L405.083 418.278C406.465 416.842 415.824 406.952 417.397 397.336Z" fill="white"/>
<path opacity="0.4" d="M575.469 491.036C578.849 522.567 578.89 539.665 582.68 548.789C589.069 564.192 598.51 567.311 598.51 567.311C595.787 561.976 592.996 555.697 591.094 548.557C589.11 541.074 591.053 522.649 592.955 504.811C594.296 491.98 595.582 479.861 595.213 472.994L595.089 470.559C594.159 452.599 592.216 415.228 588.194 404.886C584.308 394.928 580.655 393.437 574.019 390.77C573.335 390.469 572.623 390.195 571.857 389.88C569.367 388.841 565.139 386.652 560.241 384.122C549.226 378.417 535.517 371.318 528.553 370.374C519.358 369.157 510.492 370.949 509.028 371.277C500.449 364.697 485.85 356.216 481.499 356.039C477.942 355.874 468.296 358.679 464.547 359.855C480.925 373.247 504.609 389.908 504.609 389.908C523.312 393.628 520.918 401.754 528.47 406.282C535.325 410.385 541.865 398.375 547.585 397.322C555.124 395.927 563.716 403.929 563.333 413.572C562.266 440.329 572.568 463.979 575.469 491.036Z" fill="#D8F1BC"/>
<path opacity="0.4" d="M480.927 393.328C480.927 393.328 466.109 381.044 459.008 376.872C451.907 372.713 450.813 358.61 456.395 355.177C456.586 355.054 456.805 354.985 457.079 354.958C456.901 354.876 456.723 354.78 456.573 354.726C451.743 352.728 444.45 352.66 440.469 352.783C448.733 368.063 455.232 379.799 456.997 382.357C462.976 391.002 480.927 393.328 480.927 393.328Z" fill="#D8F1BC"/>
<path opacity="0.4" d="M458.444 584.779C459.06 581.509 453.682 571.934 451.315 568.049C445.925 559.185 383.492 504.032 392.55 489.299C401.567 474.54 409.844 485.483 415.577 486.427C419.696 487.111 430.956 480.394 430.901 479.833C429.615 468.494 440.096 461.121 440.096 461.121C440.096 461.121 439.124 415.98 436.73 416.76C434.322 417.526 405.507 348.967 405.507 348.967C405.507 348.967 375.064 308.477 376.774 289.6C378.485 270.737 391.688 270.313 391.688 270.313L391.661 269.806C390.046 269.328 378.156 266.318 373.381 277.836C368.154 290.366 375.625 317.915 382.89 327.915C386.393 332.743 395.943 352.373 405.658 372.7C403.154 375.011 383.246 393.41 373.573 396.843C365.651 399.647 367.498 440.233 368.989 472.843C369.55 484.881 370.015 495.236 369.878 501.46C369.605 513.497 391.51 530.09 412.731 546.108C431.928 560.635 451.753 575.641 454.079 586.543C454.722 589.621 456.556 592.097 458.745 594.901C458.403 590.934 458.129 586.502 458.444 584.779ZM417.397 397.336C424.361 411.917 428.671 420.645 429.684 421.575C430.71 422.505 430.669 427.169 430.628 431.656C430.573 435.623 430.546 439.877 431.038 443.475C429.342 444.966 418.642 454.719 416.48 462.598L407.382 451.874L405.083 418.278C406.465 416.842 415.824 406.952 417.397 397.336Z" fill="#D8F1BC"/>
<path d="M472.378 393.15C472.378 393.15 463.238 390.742 456.999 382.371C450.746 373.999 426.187 335.876 419.386 325.111C412.586 314.345 391.68 270.326 391.68 270.326C391.68 270.326 378.819 266.017 373.811 278.041C368.803 290.051 375.658 317.177 383.279 327.641C390.9 338.092 427.144 418.62 430.018 421.233C432.891 423.832 428.581 445.294 434.341 450.492" stroke="#4E7524" stroke-miterlimit="10" stroke-linecap="round" stroke-linejoin="round"/>
<path d="M431.579 443.666C431.579 443.666 418.307 455.225 416.748 463.665L406.896 452.079L404.57 418.1C404.57 418.1 416.46 406.2 417.103 395.612" stroke="#4E7524" stroke-miterlimit="10" stroke-linecap="round" stroke-linejoin="round"/>
<path d="M406.253 372.809C406.253 372.809 384.211 393.601 373.73 397.308C363.25 401.015 370.884 478.917 370.365 501.474C369.845 524.03 449.667 563.317 454.552 586.42C456.494 595.599 464.54 597.473 469.452 615.078" stroke="#4E7524" stroke-miterlimit="10" stroke-linecap="round" stroke-linejoin="round"/>
<path d="M437.633 353.453C437.633 353.453 449.632 352.373 456.391 355.177C463.15 357.981 490.611 381.564 497.219 386.078C503.828 390.578 513.802 392.288 515.69 397.13" stroke="#4E7524" stroke-miterlimit="10" stroke-linecap="round" stroke-linejoin="round"/>
<path d="M464.461 360.402C464.461 360.402 476.816 356.326 481.468 356.531C486.12 356.736 503.88 367.214 511.815 374.177C519.751 381.14 527.714 384.997 532.489 386.734" stroke="#4E7524" stroke-miterlimit="10" stroke-linecap="round" stroke-linejoin="round"/>
<path d="M508.938 371.811C508.938 371.811 518.501 369.526 528.517 370.867C538.532 372.221 563.68 387.008 571.698 390.346C579.702 393.683 583.547 394.299 587.761 405.078C591.962 415.857 593.904 456.839 594.753 473.035C595.601 489.231 587.159 535.616 590.634 548.68C594.11 561.73 600.417 571.797 604.235 578.787" stroke="#4E7524" stroke-miterlimit="10" stroke-linecap="round" stroke-linejoin="round"/>
<path d="M404.57 418.086C404.57 418.086 402.572 410.112 399.945 409.086" stroke="#4E7524" stroke-miterlimit="10" stroke-linecap="round" stroke-linejoin="round"/>
<path d="M406.891 452.065C406.891 452.065 408.669 460.957 410.626 465.813C412.582 470.669 409.531 477.686 409.531 477.686" stroke="#4E7524" stroke-miterlimit="10" stroke-linecap="round" stroke-linejoin="round"/>
<path d="M416.752 463.651C416.424 471.421 424.168 480.504 426.043 479.218" stroke="#4E7524" stroke-miterlimit="10" stroke-linecap="round" stroke-linejoin="round"/>
<path d="M456.117 418.087C456.117 418.087 464.409 404.654 472.385 403.997C480.349 403.341 489.543 414.64 494.455 413.586C499.381 412.533 505.551 405.297 513.802 403.97C522.066 402.643 525.938 406.624 532.492 406.952C539.059 407.28 539.716 398.526 547.583 397.322C555.45 396.118 558.078 400.112 563.331 401.07C568.585 402.028 569.899 397.951 574.154 395.585" stroke="#4E7524" stroke-miterlimit="10" stroke-linecap="round" stroke-linejoin="round"/>
</svg>
