<svg width="15" height="19" viewBox="0 0 15 19" fill="none" xmlns="http://www.w3.org/2000/svg">
<path d="M14.6666 15.9306L11.5746 12.3596C12.3198 11.1172 12.6925 9.73225 12.6925 8.20538C12.6925 7.21282 12.5257 6.26355 12.192 5.35779C11.8586 4.45187 11.4078 3.67104 10.8399 3.01511C10.272 2.35918 9.59603 1.83854 8.81184 1.45338C8.0274 1.06811 7.20558 0.875488 6.34621 0.875488C5.48691 0.875488 4.66503 1.06811 3.88081 1.45338C3.09646 1.83854 2.42041 2.35918 1.8525 3.01511C1.28453 3.67104 0.833821 4.45202 0.500311 5.35779C0.16677 6.26366 0 7.21282 0 8.20538C0 9.19786 0.16677 10.1468 0.500311 11.0528C0.833789 11.9586 1.28453 12.7393 1.8525 13.3952C2.42041 14.0514 3.09659 14.5718 3.88081 14.9572C4.66512 15.3424 5.48691 15.535 6.34621 15.535C7.66848 15.535 8.86741 15.1044 9.94311 14.2439L13.0351 17.8045C13.2514 18.0682 13.5215 18.2002 13.8463 18.2002C14.1588 18.2002 14.4293 18.0683 14.6575 17.8045C14.8858 17.5409 15 17.2285 15 16.8676C15.0001 16.4999 14.889 16.1874 14.6666 15.9306ZM9.19931 11.5003C8.40906 12.4132 7.4581 12.8696 6.34621 12.8696C5.23452 12.8696 4.28356 12.4131 3.49325 11.5003C2.70293 10.5876 2.30779 9.48938 2.30779 8.20516C2.30779 6.92116 2.70303 5.82263 3.49325 4.91001C4.2834 3.99717 5.23452 3.54082 6.34621 3.54082C7.45798 3.54082 8.40893 3.99735 9.19931 4.91001C9.98969 5.82263 10.3848 6.92116 10.3848 8.20516C10.3848 9.48938 9.98956 10.5876 9.19931 11.5003Z" fill="#4E7524"/>
</svg>
