<svg width="54" height="54" viewBox="0 0 54 54" fill="none" xmlns="http://www.w3.org/2000/svg">
<path d="M27 0C12.0883 0 0 12.0883 0 27C0 41.9117 12.0883 54 27 54C41.9117 54 54 41.9117 54 27C53.9836 12.0952 41.9048 0.0164513 27 0ZM51.986 26.003H44.3087C44.2383 22.3303 43.6544 18.6858 42.5739 15.175C44.2463 14.4273 45.8367 13.5085 47.3198 12.4332C50.1755 16.3993 51.7984 21.1193 51.986 26.003ZM46.0835 10.8678C44.7895 11.8049 43.407 12.613 41.9557 13.2807C40.6332 9.54559 38.4309 6.1838 35.5347 3.47969C39.6338 4.98286 43.2698 7.52944 46.0835 10.8678ZM33.9693 27.997H42.3246C42.2563 31.4128 41.7265 34.8035 40.7493 38.0772C38.4261 37.2104 36.0209 36.5824 33.5705 36.2027C33.8198 33.401 33.9494 30.5794 33.9693 27.997ZM33.5805 17.7973C36.0309 17.4176 38.4361 16.7896 40.7592 15.9228C41.7296 19.1974 42.2528 22.5882 42.3146 26.003H33.9793C33.9793 23.4306 33.8198 20.6089 33.5805 17.7973ZM40.1012 14.0384C37.9238 14.8565 35.6688 15.4512 33.3711 15.8131C32.7928 10.469 31.7559 5.42393 30.1507 2.52253C34.3582 3.96824 37.9675 8.22563 40.1012 14.0384ZM31.9852 27.997C31.9852 30.8984 31.8357 33.5506 31.6363 35.9734C28.5677 35.6405 25.4722 35.6405 22.4036 35.9734C22.2042 33.5905 22.0846 30.9383 22.0547 27.997H31.9852ZM22.0148 26.003C22.0148 23.1016 22.1643 20.4494 22.3637 18.0266C23.8968 18.1933 25.4379 18.2766 26.9801 18.2759C28.5288 18.2772 30.0766 18.1941 31.6163 18.0266C31.8157 20.4095 31.9354 23.0617 31.9653 26.003H22.0148ZM27 1.99409C28.2962 1.99409 30.4398 6.79985 31.4369 16.0823C29.9633 16.2429 28.4822 16.3228 27 16.3216C25.5169 16.3062 24.0358 16.2097 22.5631 16.0325C23.5602 6.79985 25.7038 1.99409 27 1.99409ZM23.8493 2.52253V2.5325C22.2441 5.4339 21.2072 10.5089 20.6289 15.8231C18.3308 15.4579 16.0759 14.86 13.8988 14.0384C16.0325 8.22563 19.6418 3.96824 23.8493 2.52253ZM20.0207 26.003H11.6854C11.7537 22.5872 12.2835 19.1965 13.2607 15.9228C15.5838 16.7896 17.9891 17.4176 20.4394 17.7973C20.1902 20.6089 20.0207 23.4306 20.0207 26.003ZM20.4394 36.2027H20.4195C17.9691 36.5824 15.5639 37.2104 13.2408 38.0772C12.2704 34.8026 11.7472 31.4118 11.6854 27.997H20.0207C20.0207 30.5694 20.1902 33.3911 20.4394 36.2027ZM18.5052 3.47969C15.5945 6.17944 13.3782 9.54148 12.0443 13.2807C10.5788 12.6121 9.18279 11.8007 7.87666 10.8578C10.7138 7.51174 14.3784 4.96778 18.5052 3.47969ZM6.69018 12.4332V12.4531C8.17328 13.5284 9.7637 14.4472 11.4361 15.195C10.3541 18.6988 9.76669 22.3366 9.69129 26.003H2.01403C2.20447 21.1183 3.83102 16.3982 6.69018 12.4332ZM6.68021 41.5668C3.82454 37.6007 2.2016 32.8807 2.01403 27.997H9.69129C9.7617 31.6697 10.3456 35.3142 11.4261 38.825C9.75373 39.5725 8.16319 40.4914 6.68021 41.5668ZM7.91654 43.1322C9.21058 42.1954 10.5931 41.3872 12.0443 40.7194C13.3653 44.458 15.5679 47.8233 18.4653 50.5303C14.3652 49.0242 10.7291 46.4742 7.91654 43.1322ZM13.8988 39.9616C16.0762 39.1435 18.3312 38.5488 20.6289 38.1869C21.2072 43.531 22.2441 48.5761 23.8493 51.4775C19.6418 50.0318 16.0325 45.7744 13.8988 39.9616ZM27 52.0059C25.7038 52.0059 23.5602 47.2001 22.5631 37.9177C25.5089 37.5957 28.4811 37.5957 31.4269 37.9177C30.4398 47.2001 28.2962 52.0059 27 52.0059ZM30.1507 51.4775V51.4675C31.7559 48.5661 32.7928 43.4911 33.3711 38.1769C35.6692 38.5421 37.9241 39.14 40.1012 39.9616C37.9675 45.7744 34.3582 50.0318 30.1507 51.4775ZM35.4948 50.5203V50.4705C38.3988 47.7849 40.6147 44.4406 41.9557 40.7194C43.4212 41.3879 44.8172 42.1993 46.1233 43.1422C43.2862 46.4883 39.6216 49.0322 35.4948 50.5203ZM47.3098 41.5668V41.497C45.8267 40.4217 44.2363 39.503 42.5639 38.7552C43.6414 35.2674 44.2286 31.6466 44.3087 27.997H51.986C51.7955 32.8817 50.169 37.6018 47.3098 41.5668Z" fill="white"/>
</svg>
