<svg width="57" height="57" viewBox="0 0 57 57" fill="none" xmlns="http://www.w3.org/2000/svg">
<g clip-path="url(#clip0_7065_1302)">
<path d="M18.5241 8.72562C17.2857 7.75485 15.5046 7.92091 14.4671 9.10399C13.4523 10.3287 13.6225 12.1441 14.8472 13.1589C16.0719 14.1737 17.8873 14.0036 18.9021 12.7788C19.9162 11.555 19.747 9.74093 18.5241 8.72562ZM17.2839 11.3953V11.4373C17.011 11.769 16.521 11.8169 16.1891 11.5441C15.8574 11.2712 15.8096 10.7812 16.0823 10.4493C16.2304 10.2692 16.4515 10.165 16.6847 10.1655C16.8652 10.1652 17.0402 10.2283 17.1787 10.3442C17.4828 10.6134 17.5287 11.0713 17.2839 11.3953Z" fill="white"/>
<path d="M46.0127 21.6115C46.0056 21.6115 45.9987 21.6113 45.9916 21.6113H44.1838C44.1277 21.4201 44.0183 21.2487 43.8685 21.1174L18.696 0.243604C18.25 -0.127941 17.5872 -0.0677682 17.2157 0.378269C17.2152 0.378926 17.2146 0.379583 17.214 0.38024L6.52485 13.2871C6.15331 13.733 6.21348 14.3958 6.65952 14.7673C6.66018 14.7679 6.66083 14.7685 6.66149 14.769L15.1434 21.8005C13.0895 22.3739 11.6733 24.2506 11.6855 26.3831V37.9446H9.40472C8.82428 37.9446 8.35367 38.4152 8.35367 38.9956V45.5121C8.35367 46.0925 8.82428 46.5631 9.40472 46.5631H11.6855V52.2703C11.6913 54.8801 13.8054 56.9942 16.4152 57H45.9916C48.6013 56.9942 50.7155 54.8801 50.7213 52.2703V26.3831C50.7386 23.7652 48.6306 21.629 46.0127 21.6115ZM8.81613 13.7706L18.1704 2.48233L41.7243 22.0633L39.0126 25.332H36.5952C36.6093 25.1677 36.6093 25.0024 36.5952 24.8381C36.5197 24.0753 36.1411 23.3746 35.5442 22.8936C34.9609 22.4003 34.2021 22.1651 33.4421 22.242C31.8846 22.3973 30.739 23.772 30.8671 25.332H22.6584L8.81613 13.7706ZM34.5037 25.29H32.9902C32.8551 24.8884 33.0712 24.4532 33.4729 24.3182C33.5309 24.2986 33.5912 24.2861 33.6523 24.281C33.8575 24.2642 34.0613 24.3283 34.2199 24.4597C34.3841 24.5918 34.4867 24.7856 34.5037 24.9957C34.5223 25.0929 34.5223 25.1928 34.5037 25.29ZM16.4152 23.7134H17.4662L19.3581 25.332H18.5488C17.9684 25.332 17.4978 25.8026 17.4978 26.3831C17.4978 26.9635 17.9684 27.4341 18.5488 27.4341H43.8475C44.4279 27.4341 44.8985 26.9635 44.8985 26.3831C44.8985 25.8026 44.4279 25.332 43.8475 25.332H41.7454L43.0592 23.7555H45.9601C47.4113 23.7555 48.5877 24.9319 48.5877 26.3831C48.5877 27.8343 47.4113 29.0107 45.9601 29.0107L45.9916 28.9687H16.4152C14.964 28.9687 13.7876 27.7923 13.7876 26.341C13.7876 24.8898 14.964 23.7134 16.4152 23.7134ZM10.4558 44.419V40.0467H22.0173C23.2362 40.0467 24.2244 41.0349 24.2244 42.2539C24.2244 43.4728 23.2362 44.4611 22.0173 44.4611L10.4558 44.419ZM48.6192 52.2283C48.6134 53.6771 47.4405 54.8501 45.9916 54.8559H16.4152C14.9665 54.8501 13.7934 53.6771 13.7876 52.2283V46.5211H22.0173C24.3972 46.5211 26.3265 44.5918 26.3265 42.2118C26.3265 39.8319 24.3972 37.9025 22.0173 37.9025H13.7876V30.272C14.5646 30.7934 15.4794 31.0715 16.4152 31.0707H45.9916C46.9274 31.0715 47.8422 30.7934 48.6192 30.272V52.2283Z" fill="white"/>
<path d="M29.0813 13.3982C26.5886 11.3027 22.8691 11.6247 20.7737 14.1174C18.6782 16.6101 19.0002 20.3296 21.4929 22.425C22.5483 23.3122 23.8813 23.8015 25.26 23.8079C27.0118 23.8218 28.6777 23.0506 29.8005 21.7058C31.896 19.2131 31.574 15.4938 29.0813 13.3982ZM28.1875 20.36C26.8526 21.9753 24.4609 22.2024 22.8457 20.8675C22.8447 20.8667 22.8436 20.8658 22.8427 20.865C21.2272 19.5394 20.9922 17.1552 22.3178 15.5397C22.3245 15.5315 22.3314 15.5233 22.3382 15.5152V15.5257C23.6732 13.9104 26.0648 13.6832 27.68 15.0182C29.2952 16.3531 29.5225 18.7448 28.1875 20.36Z" fill="white"/>
</g>
<defs>
<clipPath id="clip0_7065_1302">
<rect width="57" height="57" fill="white"/>
</clipPath>
</defs>
</svg>
