<svg width="60" height="60" viewBox="0 0 60 60" fill="none" xmlns="http://www.w3.org/2000/svg">
<path d="M0.938772 48.9701H14.0635V49.3154C14.0635 49.8911 14.524 50.294 15.0997 50.3516H44.8029C45.3786 50.3516 45.7815 49.8911 45.8391 49.3154V48.9701H58.9638C59.5395 48.9701 60 48.5096 60 47.9339V44.3074C60 38.6661 56.4886 33.6579 51.1926 31.7583C55.51 29.2255 57.0066 23.6417 54.4738 19.3244C51.941 15.007 46.3573 13.5103 42.0399 16.0432C41.4067 16.3885 40.831 16.849 40.3129 17.3096C38.586 11.6108 32.5993 8.38713 26.9004 10.1141C23.4466 11.1503 20.7411 13.8558 19.7049 17.3096C16.0784 13.7982 10.3219 13.9133 6.8105 17.4824C2.66574 21.742 3.7019 28.765 8.82512 31.7007C3.52917 33.6004 0.0177677 38.666 0.0177677 44.2498V47.8763C-0.0973875 48.5096 0.363115 48.9701 0.938772 48.9701ZM43.7668 48.2794H16.0207V43.9044C16.0207 36.8239 21.7195 31.0676 28.8 31.125H30.8723C37.9528 31.125 43.6517 36.8815 43.6517 43.9044C43.7668 43.962 43.7668 48.337 43.7668 48.2794ZM17.8052 31.7583C19.5322 30.7797 20.9137 29.2255 21.7197 27.3258C22.5255 28.3043 23.5042 29.1103 24.5979 29.6858C22.6984 30.2615 20.9714 31.1825 19.4171 32.449C18.8989 32.1613 18.3809 31.931 17.8052 31.7583ZM35.1896 29.686C36.2833 29.0527 37.2619 28.2469 38.0679 27.3259C38.8163 29.1679 40.1978 30.7222 41.9823 31.7584C41.4067 31.9887 40.8886 32.2189 40.3705 32.4492C38.8163 31.1826 37.0893 30.2616 35.1896 29.686ZM54.5314 36.306C56.6613 38.4359 57.8702 41.314 57.8702 44.3075V46.9554H45.7815V43.9045C45.7815 40.0477 44.1697 36.3061 41.9246 33.9459C46.1844 32.0462 51.1926 32.9672 54.5314 36.306ZM40.6583 19.9C42.8458 16.6764 47.2782 15.8706 50.5018 18.058C53.7254 20.2455 54.5313 24.6779 52.3438 27.9015C50.1563 31.1252 45.7239 31.931 42.5003 29.7435C40.9461 28.7074 39.9099 27.038 39.5645 25.196C40.1978 23.9871 40.7159 21.7996 40.6583 19.9ZM30.642 11.7259C35.4775 12.1288 38.9313 16.3311 38.6435 20.9362C38.2406 27.441 31.3329 31.0676 25.7491 28.0742C22.9284 26.5775 21.144 23.5842 21.144 20.4181C21.1439 15.41 25.4612 11.2653 30.642 11.7259ZM6.17715 23.8719C6.17715 19.9575 9.40078 16.7916 13.3151 16.7916C15.6177 16.7916 17.8051 17.9429 19.1291 19.9C19.014 21.627 19.4169 23.5266 20.2229 25.196C19.4745 29.0529 15.7903 31.5857 11.9336 30.8949C8.59481 30.204 6.17715 27.2683 6.17715 23.8719ZM1.91735 44.3074C1.91735 38.0328 6.98299 32.9672 13.2575 32.9672C14.8118 32.9672 16.4236 33.3125 17.8627 33.9458C15.6176 36.3058 14.0058 40.0476 14.0058 43.9044V46.9553H1.91735V44.3074Z" fill="white"/>
</svg>
